<svg width="237" height="817" viewBox="0 0 237 817" fill="none" xmlns="http://www.w3.org/2000/svg">
<path d="M164.637 814.652L164.637 350.815" stroke="url(#paint0_linear_62_122)" stroke-width="3" stroke-linecap="round"/>
<path d="M122.766 626.255V209.698" stroke="url(#paint1_linear_62_122)" stroke-width="3" stroke-linecap="round"/>
<path d="M68.1387 779.762L68.1387 426.818" stroke="url(#paint2_linear_62_122)" stroke-width="3" stroke-linecap="round"/>
<path d="M122.761 162.783L97.8613 148.417V177.167L122.761 191.533L147.643 177.167V148.417L122.761 162.783Z" fill="#4298E8"/>
<path d="M122.761 191.533L97.8613 177.167V148.417L122.761 162.783V191.533Z" fill="#4298E8"/>
<path d="M147.643 177.168L122.762 191.534V162.784L147.643 148.418V177.168Z" fill="#2F3FD3"/>
<path d="M122.761 162.783L97.8613 148.417L122.761 134.052L147.643 148.417L122.761 162.783Z" fill="#BDEBFF"/>
<path d="M122.761 162.784L98.9546 149.04L97.8613 149.662L122.761 164.028L147.643 149.662L146.568 149.04L122.761 162.784Z" fill="white"/>
<path d="M81.8609 149.434L54.416 133.6V165.267L81.8609 181.101L109.285 165.267V133.6L81.8609 149.434Z" fill="#4298E8"/>
<path d="M81.8609 181.101L54.416 165.267V133.6L81.8609 149.434V181.101Z" fill="#4298E8"/>
<path d="M109.285 165.267L81.8613 181.101V149.434L109.285 133.6V165.267Z" fill="#2F3FD3"/>
<path d="M81.8609 149.433L54.416 133.599L81.8609 117.744L109.285 133.599L81.8609 149.433Z" fill="#BDEBFF"/>
<path d="M81.8609 149.433L54.416 133.6V134.971L81.8609 150.805L109.285 134.971V133.6L81.8609 149.433Z" fill="white"/>
<path d="M163.668 244.974L132.166 226.799V263.148L163.668 281.347L195.147 263.148V226.799L163.668 244.974Z" fill="#4298E8"/>
<path d="M163.668 281.347L132.166 263.148V226.799L163.668 244.974V281.347Z" fill="#4298E8"/>
<path d="M195.146 263.148L163.668 281.347V244.974L195.146 226.799V263.148Z" fill="#2F3FD3"/>
<path d="M163.668 244.973L132.166 226.798L163.668 208.623L195.147 226.798L163.668 244.973Z" fill="#4298E8"/>
<path d="M163.668 244.974L133.549 227.586L132.166 228.373L163.668 246.548L195.147 228.373L193.787 227.586L163.668 244.974Z" fill="white"/>
<path d="M204.559 295.719L186.869 285.492V305.933L204.559 316.147L222.25 305.933V285.492L204.559 295.719Z" fill="#4298E8"/>
<path d="M204.559 316.147L186.869 305.933V285.492L204.559 295.719V316.147Z" fill="#4298E8"/>
<path d="M222.249 305.933L204.559 316.147V295.719L222.249 285.492V305.933Z" fill="#2F3FD3"/>
<path d="M204.559 295.719L186.869 285.492L204.559 275.278L222.25 285.492L204.559 295.719Z" fill="#4298E8"/>
<path d="M204.559 295.719L187.633 285.935L186.869 286.39L204.559 296.604L222.25 286.39V285.492L204.559 295.719Z" fill="white"/>
<path d="M163.664 337.961L139.625 324.092V351.848L163.664 365.718L187.686 351.848V324.092L163.664 337.961Z" fill="#4298E8"/>
<path d="M163.664 365.718L139.625 351.848V324.092L163.664 337.961V365.718Z" fill="#4298E8"/>
<path d="M187.685 351.848L163.664 365.718V337.961L187.685 324.092V351.848Z" fill="#2F3FD3"/>
<path d="M163.664 337.961L139.625 324.092L163.664 310.223L187.686 324.092L163.664 337.961Z" fill="#4298E8"/>
<path d="M163.664 337.961L140.68 324.692L139.625 325.293L163.664 339.18L187.686 325.293V324.092L163.664 337.961Z" fill="white"/>
<path d="M40.9691 271.737L9.4668 253.562V289.912L40.9691 308.111L72.4475 289.912V253.562L40.9691 271.737Z" fill="#4298E8"/>
<path d="M40.9691 308.111L9.4668 289.912V253.562L40.9691 271.737V308.111Z" fill="#4298E8"/>
<path d="M72.4472 289.912L40.9688 308.111V271.737L72.4472 253.562V289.912Z" fill="#2F3FD3"/>
<path d="M40.9691 271.738L9.4668 253.563L40.9691 235.364L72.4475 253.563L40.9691 271.738Z" fill="#4298E8"/>
<path d="M40.9691 271.737L9.4668 253.562V255.137L40.9691 273.311L72.4475 255.137L71.0882 254.35L40.9691 271.737Z" fill="white"/>
<path d="M81.8675 346.596L50.3652 328.397V364.771L81.8675 382.945L113.346 364.771V328.397L81.8675 346.596Z" fill="#4298E8"/>
<path d="M81.8675 382.945L50.3652 364.771V328.397L81.8675 346.596V382.945Z" fill="#4298E8"/>
<path d="M113.346 364.771L81.8672 382.945V346.596L113.346 328.397V364.771Z" fill="#2F3FD3"/>
<path d="M81.8675 346.596L50.3652 328.397L81.8675 310.223L113.346 328.397L81.8675 346.596Z" fill="#4298E8"/>
<path d="M81.8675 346.596L50.3652 328.397V329.972L81.8675 348.17L113.346 329.972L111.987 329.185L81.8675 346.596Z" fill="white"/>
<path d="M122.761 402.42L105.883 392.683V412.158L122.761 421.908L139.626 412.158V392.683L122.761 402.42Z" fill="#4298E8"/>
<path d="M122.761 421.908L105.883 412.158V392.683L122.761 402.42V421.908Z" fill="#4298E8"/>
<path d="M139.625 412.158L122.76 421.908V402.42L139.625 392.683V412.158Z" fill="#2F3FD3"/>
<path d="M122.761 402.42L105.883 392.683L122.761 382.945L139.626 392.683L122.761 402.42Z" fill="#4298E8"/>
<path d="M122.761 402.42L105.883 392.683V393.526L122.761 403.264L139.626 393.526V392.683L122.761 402.42Z" fill="white"/>
<path d="M40.9469 185.621L0 161.997V209.244L40.9469 232.868L81.8628 209.244V161.997L40.9469 185.621Z" fill="#4298E8"/>
<path d="M40.9469 232.868L0 209.244V161.997L40.9469 185.621V232.868Z" fill="#4298E8"/>
<path d="M81.8632 209.244L40.9473 232.868V185.621L81.8632 161.997V209.244Z" fill="#2F3FD3"/>
<path d="M40.9469 185.62L0 161.996L40.9469 138.342L81.8628 161.996L40.9469 185.62Z" fill="#BDEBFF"/>
<path d="M40.9469 185.621L0 161.997V164.043L40.9469 187.667L81.8628 164.043V161.997L40.9469 185.621Z" fill="white"/>
<path opacity="0.7" d="M204.639 214.635L183.152 202.233L204.639 189.83L226.125 202.233L204.639 214.635Z" fill="#1400FF"/>
<path d="M204.65 189.839L178.176 174.565V205.113L204.65 220.387L231.104 205.113V174.565L204.65 189.839Z" fill="#4298E8"/>
<path d="M204.65 220.387L178.176 205.113V174.565L204.65 189.839V220.387Z" fill="#4298E8"/>
<path d="M231.104 205.114L204.65 220.388V189.84L231.104 174.566V205.114Z" fill="#2F3FD3"/>
<path d="M204.65 189.839L178.176 174.565L204.65 159.271L231.104 174.565L204.65 189.839Z" fill="#BDEBFF"/>
<path d="M204.65 189.839L178.176 174.565V175.888L204.65 191.162L231.104 175.888V174.565L204.65 189.839Z" fill="white"/>
<path d="M81.8634 246.119L54.4199 230.286V261.952L81.8634 277.785L109.286 261.952V230.286L81.8634 246.119Z" fill="#4298E8"/>
<path d="M81.8634 277.785L54.4199 261.952V230.286L81.8634 246.119V277.785Z" fill="#4298E8"/>
<path d="M109.286 261.952L81.863 277.785V246.119L109.286 230.286V261.952Z" fill="#2F3FD3"/>
<path d="M81.8634 246.119L54.4199 230.286L81.8634 214.432L109.286 230.286L81.8634 246.119Z" fill="#BDEBFF"/>
<path d="M81.8634 246.119L54.4199 230.286V231.658L81.8634 247.491L109.286 231.658V230.286L81.8634 246.119Z" fill="white"/>
<path d="M163.685 171.923L129.963 152.468V191.379L163.685 210.834L197.382 191.379V152.468L163.685 171.923Z" fill="#4298E8"/>
<path d="M163.685 210.834L129.963 191.379V152.468L163.685 171.923V210.834Z" fill="#4298E8"/>
<path d="M197.382 191.38L163.686 210.835V171.924L197.382 152.469V191.38Z" fill="#2F3FD3"/>
<path d="M163.685 171.923L129.963 152.467L163.685 132.986L197.382 152.467L163.685 171.923Z" fill="#BDEBFF"/>
<path d="M163.685 171.923L129.963 152.468V154.153L163.685 173.608L197.382 154.153V152.468L163.685 171.923Z" fill="white"/>
<path d="M122.766 285.834L86.0586 264.656V307.011L122.766 328.189L159.445 307.011V264.656L122.766 285.834Z" fill="#4298E8"/>
<path d="M122.766 328.189L86.0586 307.011V264.656L122.766 285.834V328.189Z" fill="#4298E8"/>
<path d="M159.445 307.011L122.766 328.189V285.834L159.445 264.656V307.011Z" fill="#2F3FD3"/>
<path d="M122.766 285.833L86.0586 264.655L122.766 243.45L159.445 264.655L122.766 285.833Z" fill="#BDEBFF"/>
<path d="M122.766 285.834L86.0586 264.656V266.491L122.766 287.668L159.445 266.491V264.656L122.766 285.834Z" fill="white"/>
<path d="M122.76 108.809L101.654 96.6328V120.986L122.76 133.178L143.849 120.986V96.6328L122.76 108.809Z" fill="#4298E8"/>
<path d="M122.76 133.178L101.654 120.986V96.6328L122.76 108.809V133.178Z" fill="#4298E8"/>
<path d="M143.849 120.986L122.76 133.178V108.809L143.849 96.6328V120.986Z" fill="#2F3FD3"/>
<path d="M122.76 108.808L101.654 96.6318L122.76 84.4395L143.849 96.6318L122.76 108.808Z" fill="#BDEBFF"/>
<path d="M122.76 108.809L101.654 96.6328V97.6875L122.76 109.864L143.849 97.6875V96.6328L122.76 108.809Z" fill="white"/>
<path d="M81.8688 47.2494L40.9473 23.6094V70.8584L81.8688 94.4674L122.759 70.8584V23.6094L81.8688 47.2494Z" fill="#4298E8"/>
<path d="M81.8688 94.4674L40.9473 70.8584V23.6094L81.8688 47.2494V94.4674Z" fill="#4298E8"/>
<path d="M122.754 70.8584L81.8633 94.4674V47.2494L122.754 23.6094V70.8584Z" fill="#2F3FD3"/>
<path d="M81.8688 47.249L40.9473 23.609L81.8688 0L122.759 23.609L81.8688 47.249Z" fill="#BDEBFF"/>
<path d="M81.8688 47.2494L40.9473 23.6094V25.6852L81.8688 49.2943L122.759 25.6852V23.6094L81.8688 47.2494Z" fill="white"/>
<path d="M40.9649 104.92L27.5 97.1514V112.698L40.9649 120.467L54.4197 112.698V97.1514L40.9649 104.92Z" fill="#4298E8"/>
<path d="M40.9649 120.467L27.5 112.698V97.1514L40.9649 104.92V120.467Z" fill="#4298E8"/>
<path d="M54.4196 112.698L40.9648 120.467V104.92L54.4196 97.1514V112.698Z" fill="#2F3FD3"/>
<path d="M40.9649 104.92L27.5 97.1512L40.9649 89.3828L54.4197 97.1512L40.9649 104.92Z" fill="#BDEBFF"/>
<path d="M40.9649 104.92L27.5 97.1514V97.8242L40.9649 105.603L54.4197 97.8242V97.1514L40.9649 104.92Z" fill="white"/>
<path d="M163.665 36.0241L144.164 24.7588V47.2745L163.665 58.525L183.15 47.2745V24.7588L163.665 36.0241Z" fill="#4298E8"/>
<path d="M163.665 58.525L144.164 47.2745V24.7588L163.665 36.0241V58.525Z" fill="#4298E8"/>
<path d="M183.152 47.2736L163.666 58.5241V36.0231L183.152 24.7578V47.2736Z" fill="#2F3FD3"/>
<path d="M163.665 36.0236L144.164 24.7583L163.665 13.5078L183.15 24.7583L163.665 36.0236Z" fill="#BDEBFF"/>
<path d="M163.665 36.024L144.164 24.7588V25.7332L163.665 36.9985L183.15 25.7332V24.7588L163.665 36.024Z" fill="white"/>
<path d="M204.533 96.6132L173.055 78.4385V114.788L204.533 132.987L236.012 114.788V78.4385L204.533 96.6132Z" fill="#4298E8"/>
<path d="M204.533 132.987L173.055 114.788V78.4385L204.533 96.6132V132.987Z" fill="#4298E8"/>
<path d="M236.012 114.787L204.533 132.986V96.6122L236.012 78.4375V114.787Z" fill="#2F3FD3"/>
<path d="M204.533 96.6132L173.055 78.4385V80.0127L204.533 98.1874L236.012 80.0127V78.4385L204.533 96.6132Z" fill="white"/>
<path d="M204.533 96.6122L173.055 78.4374L204.533 60.2627L236.012 78.4374L204.533 96.6122Z" fill="#BDEBFF"/>
<defs>
<linearGradient id="paint0_linear_62_122" x1="4.83646e+12" y1="685.289" x2="4.83646e+12" y2="470.105" gradientUnits="userSpaceOnUse">
<stop stop-color="#044B8C" stop-opacity="0.04"/>
<stop offset="1" stop-color="#74D4FD"/>
</linearGradient>
<linearGradient id="paint1_linear_62_122" x1="132.148" y1="626.255" x2="67.8713" y2="339.859" gradientUnits="userSpaceOnUse">
<stop stop-color="#04328C" stop-opacity="0"/>
<stop offset="1" stop-color="#74C3FD"/>
</linearGradient>
<linearGradient id="paint2_linear_62_122" x1="77.5211" y1="779.762" x2="30.7443" y2="533.774" gradientUnits="userSpaceOnUse">
<stop stop-color="#04328C" stop-opacity="0"/>
<stop offset="1" stop-color="#74C3FD"/>
</linearGradient>
</defs>
</svg>
