<svg width="228" height="229" viewBox="0 0 228 229" fill="none" xmlns="http://www.w3.org/2000/svg">
<g opacity="0.4" filter="url(#filter0_bd_16_869)">
<ellipse cx="113.951" cy="111.682" rx="96.3172" ry="96.6834" fill="url(#paint0_linear_16_869)" fill-opacity="0.2" shape-rendering="crispEdges"/>
</g>
<g clip-path="url(#clip0_16_869)">
<mask id="mask0_16_869" style="mask-type:alpha" maskUnits="userSpaceOnUse" x="24" y="21" width="180" height="181">
<path fill-rule="evenodd" clip-rule="evenodd" d="M113.952 201.56C163.452 201.56 203.58 161.299 203.58 111.635C203.58 61.9701 163.452 21.709 113.952 21.709C64.4511 21.709 24.3231 61.9701 24.3231 111.635C24.3231 161.299 64.4511 201.56 113.952 201.56ZM113.951 189.144C156.618 189.144 191.206 154.441 191.206 111.634C191.206 68.8257 156.618 34.123 113.951 34.123C71.2849 34.123 36.6969 68.8257 36.6969 111.634C36.6969 154.441 71.2849 189.144 113.951 189.144Z" fill="#D9D9D9"/>
</mask>
<g mask="url(#mask0_16_869)">
<path d="M108.248 19.04L109.74 36.1354" stroke="#687388" stroke-width="1.4649" stroke-miterlimit="10" stroke-linecap="round"/>
<path d="M100.263 20.0938L103.149 36.5023" stroke="#687388" stroke-width="1.4649" stroke-miterlimit="10" stroke-linecap="round"/>
<path d="M92.4012 21.8428L96.5837 37.4885" stroke="#687388" stroke-width="1.4649" stroke-miterlimit="10" stroke-linecap="round"/>
<path d="M84.7222 24.2705L90.091 39.058" stroke="#687388" stroke-width="1.4649" stroke-miterlimit="10" stroke-linecap="round"/>
<path d="M77.2838 27.3584L83.7279 41.2095" stroke="#687388" stroke-width="1.4649" stroke-miterlimit="10" stroke-linecap="round"/>
<path d="M77.5457 43.9428L70.1407 31.0859" stroke="#687388" stroke-width="1.4649" stroke-miterlimit="10" stroke-linecap="round"/>
<path d="M63.3501 35.4209L71.6059 47.2385" stroke="#05F0FD" stroke-width="1.4649" stroke-miterlimit="10" stroke-linecap="round"/>
<path d="M65.9595 51.0843L56.9619 40.3359" stroke="#05F0FD" stroke-width="1.4649" stroke-miterlimit="10" stroke-linecap="round"/>
<path d="M51.0229 45.79L60.665 55.4552" stroke="#05F0FD" stroke-width="1.4649" stroke-miterlimit="10" stroke-linecap="round"/>
<path d="M55.7737 60.3105L45.5833 51.7393" stroke="#05F0FD" stroke-width="1.4649" stroke-miterlimit="10" stroke-linecap="round"/>
<path d="M40.6813 58.1436L51.326 65.6155" stroke="#05F0FD" stroke-width="1.4649" stroke-miterlimit="10" stroke-linecap="round"/>
<path d="M47.3692 71.327L36.3547 64.9521" stroke="#05F0FD" stroke-width="1.4649" stroke-miterlimit="10" stroke-linecap="round"/>
<path d="M177.147 146.432L196.231 157.477" stroke="#687388" stroke-width="1.4649" stroke-miterlimit="10" stroke-linecap="round"/>
<path d="M32.6368 72.1113L43.9464 77.3976" stroke="#05F0FD" stroke-width="1.4649" stroke-miterlimit="10" stroke-linecap="round"/>
<path d="M199.948 150.315L179.796 140.896" stroke="#687388" stroke-width="1.4649" stroke-miterlimit="10" stroke-linecap="round"/>
<path d="M41.0944 83.7789L29.5561 79.5693" stroke="#05F0FD" stroke-width="1.4649" stroke-miterlimit="10" stroke-linecap="round"/>
<path d="M181.962 135.173L203.031 142.859" stroke="#687388" stroke-width="1.4649" stroke-miterlimit="10" stroke-linecap="round"/>
<path d="M27.1343 87.2646L38.8436 90.4092" stroke="#05F0FD" stroke-width="1.4649" stroke-miterlimit="10" stroke-linecap="round"/>
<path d="M205.45 135.159L183.666 129.308" stroke="#687388" stroke-width="1.4649" stroke-miterlimit="10" stroke-linecap="round"/>
<path d="M37.2205 97.2358L25.3915 95.1455" stroke="#05F0FD" stroke-width="1.4649" stroke-miterlimit="10" stroke-linecap="round"/>
<path d="M184.883 123.337L207.195 127.281" stroke="#687388" stroke-width="1.4649" stroke-miterlimit="10" stroke-linecap="round"/>
<path d="M208.245 119.278L185.596 117.292" stroke="#687388" stroke-width="1.4649" stroke-miterlimit="10" stroke-linecap="round"/>
<path d="M24.3411 103.148L36.2375 104.192" stroke="#05F0FD" stroke-width="1.4649" stroke-miterlimit="10" stroke-linecap="round"/>
<path d="M35.8967 111.212H23.9886" stroke="#05F0FD" stroke-width="1.4649" stroke-miterlimit="10" stroke-linecap="round"/>
<path d="M208.596 111.212H185.855" stroke="#687388" stroke-width="1.4649" stroke-miterlimit="10" stroke-linecap="round"/>
<path d="M36.2289 118.235L24.3411 119.278" stroke="#05F0FD" stroke-width="1.4649" stroke-miterlimit="10" stroke-linecap="round"/>
<path d="M208.246 103.148L185.588 105.136" stroke="#687388" stroke-width="1.4649" stroke-miterlimit="10" stroke-linecap="round"/>
<path d="M207.194 95.1455L184.862 99.0926" stroke="#687388" stroke-width="1.4649" stroke-miterlimit="10" stroke-linecap="round"/>
<path d="M37.2012 125.193L25.3915 127.282" stroke="#05F0FD" stroke-width="1.4649" stroke-miterlimit="10" stroke-linecap="round"/>
<path d="M205.45 87.2646L183.642 93.122" stroke="#687388" stroke-width="1.4649" stroke-miterlimit="10" stroke-linecap="round"/>
<path d="M38.8148 132.023L27.1343 135.161" stroke="#05F0FD" stroke-width="1.4649" stroke-miterlimit="10" stroke-linecap="round"/>
<path d="M203.029 79.5693L181.928 87.2674" stroke="#687388" stroke-width="1.4649" stroke-miterlimit="10" stroke-linecap="round"/>
<path d="M41.0569 138.661L29.5561 142.857" stroke="#05F0FD" stroke-width="1.4649" stroke-miterlimit="10" stroke-linecap="round"/>
<path d="M43.9015 145.05L32.6368 150.315" stroke="#05F0FD" stroke-width="1.4649" stroke-miterlimit="10" stroke-linecap="round"/>
<path d="M199.949 72.1113L179.757 81.5504" stroke="#687388" stroke-width="1.4649" stroke-miterlimit="10" stroke-linecap="round"/>
<path d="M196.229 64.9521L177.102 76.0219" stroke="#687388" stroke-width="1.4649" stroke-miterlimit="10" stroke-linecap="round"/>
<path d="M191.902 58.1436L173.99 70.7154" stroke="#687388" stroke-width="1.4649" stroke-miterlimit="10" stroke-linecap="round"/>
<path d="M187.003 51.7393L170.458 65.6547" stroke="#687388" stroke-width="1.4649" stroke-miterlimit="10" stroke-linecap="round"/>
<path d="M181.562 45.79L166.507 60.8808" stroke="#687388" stroke-width="1.4649" stroke-miterlimit="10" stroke-linecap="round"/>
<path d="M175.622 40.3359L162.139 56.4445" stroke="#687388" stroke-width="1.4649" stroke-miterlimit="10" stroke-linecap="round"/>
<path d="M169.236 35.4209L157.407 52.3534" stroke="#687388" stroke-width="1.4649" stroke-miterlimit="10" stroke-linecap="round"/>
<path d="M162.444 31.0859L152.33 48.6441" stroke="#687388" stroke-width="1.4649" stroke-miterlimit="10" stroke-linecap="round"/>
<path d="M155.301 27.3584L146.927 45.3591" stroke="#687388" stroke-width="1.4649" stroke-miterlimit="10" stroke-linecap="round"/>
<path d="M147.862 24.2705L141.226 42.5433" stroke="#687388" stroke-width="1.4649" stroke-miterlimit="10" stroke-linecap="round"/>
<path d="M140.182 21.8428L135.275 40.2002" stroke="#687388" stroke-width="1.4649" stroke-miterlimit="10" stroke-linecap="round"/>
<path d="M132.321 20.0938L129.108 38.3559" stroke="#687388" stroke-width="1.4649" stroke-miterlimit="10" stroke-linecap="round"/>
<path d="M124.337 19.04L122.764 37.0568" stroke="#687388" stroke-width="1.4649" stroke-miterlimit="10" stroke-linecap="round"/>
<path d="M116.293 18.6885V36.3238" stroke="#687388" stroke-width="1.4649" stroke-miterlimit="10" stroke-linecap="round"/>
</g>
</g>
<path d="M77.3437 137.619C76.0424 137.619 74.805 137.385 73.6317 136.915C72.4797 136.425 71.4877 135.742 70.6557 134.867C69.845 133.971 69.2904 132.915 68.9917 131.699L72.7997 130.355C73.1837 131.443 73.7704 132.275 74.5597 132.851C75.349 133.406 76.277 133.683 77.3437 133.683C78.197 133.683 78.933 133.523 79.5517 133.203C80.1917 132.883 80.693 132.425 81.0557 131.827C81.4184 131.209 81.5997 130.483 81.5997 129.651C81.5997 128.819 81.4184 128.115 81.0557 127.539C80.7144 126.942 80.2237 126.483 79.5837 126.163C78.9437 125.843 78.1864 125.683 77.3117 125.683C76.9064 125.683 76.4797 125.726 76.0317 125.811C75.605 125.897 75.221 126.025 74.8797 126.195L73.8877 124.115L80.0637 117.075H70.3357V113.395H84.9597V116.819L78.7517 124.083L78.8157 122.451C80.245 122.473 81.493 122.782 82.5597 123.379C83.6264 123.977 84.4584 124.798 85.0557 125.843C85.653 126.889 85.9517 128.115 85.9517 129.523C85.9517 131.059 85.5784 132.446 84.8317 133.683C84.085 134.899 83.061 135.859 81.7597 136.563C80.4584 137.267 78.9864 137.619 77.3437 137.619ZM96.3942 137.619C95.1355 137.619 93.9302 137.385 92.7782 136.915C91.6475 136.446 90.6662 135.785 89.8342 134.931C89.0235 134.057 88.4689 133.022 88.1702 131.827L91.9462 130.483C92.3089 131.571 92.8955 132.382 93.7062 132.915C94.5169 133.427 95.4129 133.683 96.3942 133.683C97.2049 133.683 97.9195 133.513 98.5382 133.171C99.1782 132.809 99.6689 132.318 100.01 131.699C100.352 131.059 100.522 130.323 100.522 129.491C100.522 128.659 100.341 127.934 99.9782 127.315C99.6369 126.697 99.1569 126.217 98.5382 125.875C97.9195 125.513 97.2049 125.331 96.3942 125.331C95.5622 125.331 94.8049 125.513 94.1222 125.875C93.4609 126.238 92.9809 126.761 92.6822 127.443L89.1302 126.643L91.0182 113.395H104.01V117.075H92.7462L94.3782 115.187L93.0342 125.171L91.7862 124.147C92.3835 123.273 93.1089 122.633 93.9622 122.227C94.8369 121.822 95.8929 121.619 97.1302 121.619C98.7089 121.619 100.074 121.961 101.226 122.643C102.4 123.326 103.306 124.254 103.946 125.427C104.586 126.601 104.906 127.955 104.906 129.491C104.906 131.027 104.533 132.414 103.786 133.651C103.04 134.889 102.026 135.859 100.746 136.563C99.4662 137.267 98.0155 137.619 96.3942 137.619ZM108.242 137.235L118.162 117.075H106.93V113.395H122.738V117.075L113.042 137.235H108.242Z" fill="white"/>
<path d="M128.975 137.235V126.805H130.879V132.237L130.361 132.055L134.799 126.805H137.193L133.035 131.733L133.147 130.389L137.319 137.235H135.079L132.279 132.643L130.879 134.309V137.235H128.975ZM142.201 137.403C141.65 137.403 141.142 137.296 140.675 137.081C140.218 136.857 139.854 136.54 139.583 136.129L139.765 135.765V137.235H138.043V126.637H139.877V131.131L139.597 130.753C139.858 130.343 140.213 130.025 140.661 129.801C141.109 129.568 141.627 129.451 142.215 129.451C142.934 129.451 143.582 129.629 144.161 129.983C144.74 130.338 145.197 130.814 145.533 131.411C145.878 132.009 146.051 132.681 146.051 133.427C146.051 134.165 145.883 134.837 145.547 135.443C145.211 136.05 144.754 136.531 144.175 136.885C143.596 137.231 142.938 137.403 142.201 137.403ZM141.991 135.723C142.411 135.723 142.784 135.625 143.111 135.429C143.438 135.233 143.69 134.963 143.867 134.617C144.054 134.272 144.147 133.875 144.147 133.427C144.147 132.979 144.054 132.587 143.867 132.251C143.69 131.906 143.438 131.635 143.111 131.439C142.784 131.234 142.411 131.131 141.991 131.131C141.59 131.131 141.226 131.229 140.899 131.425C140.582 131.621 140.33 131.897 140.143 132.251C139.966 132.597 139.877 132.989 139.877 133.427C139.877 133.875 139.966 134.272 140.143 134.617C140.33 134.963 140.582 135.233 140.899 135.429C141.226 135.625 141.59 135.723 141.991 135.723ZM146.539 138.915L151.187 127.365H153.189L148.541 138.915H146.539ZM156.869 137.403C156.057 137.403 155.348 137.212 154.741 136.829C154.144 136.437 153.733 135.91 153.509 135.247L154.881 134.589C155.077 135.019 155.348 135.355 155.693 135.597C156.048 135.84 156.44 135.961 156.869 135.961C157.205 135.961 157.471 135.887 157.667 135.737C157.863 135.588 157.961 135.392 157.961 135.149C157.961 135 157.919 134.879 157.835 134.785C157.761 134.683 157.653 134.599 157.513 134.533C157.383 134.459 157.238 134.398 157.079 134.351L155.833 134.001C155.189 133.815 154.699 133.53 154.363 133.147C154.037 132.765 153.873 132.312 153.873 131.789C153.873 131.323 153.99 130.917 154.223 130.571C154.466 130.217 154.797 129.941 155.217 129.745C155.647 129.549 156.137 129.451 156.687 129.451C157.406 129.451 158.041 129.624 158.591 129.969C159.142 130.315 159.534 130.8 159.767 131.425L158.367 132.083C158.237 131.738 158.017 131.463 157.709 131.257C157.401 131.052 157.056 130.949 156.673 130.949C156.365 130.949 156.123 131.019 155.945 131.159C155.768 131.299 155.679 131.481 155.679 131.705C155.679 131.845 155.717 131.967 155.791 132.069C155.866 132.172 155.969 132.256 156.099 132.321C156.239 132.387 156.398 132.447 156.575 132.503L157.793 132.867C158.419 133.054 158.899 133.334 159.235 133.707C159.581 134.081 159.753 134.538 159.753 135.079C159.753 135.537 159.632 135.943 159.389 136.297C159.147 136.643 158.811 136.913 158.381 137.109C157.952 137.305 157.448 137.403 156.869 137.403Z" fill="url(#paint1_linear_16_869)" fill-opacity="0.94"/>
<path d="M78.152 96.9199V84.9999H80.328V96.9199H78.152ZM82.4448 96.9199V88.2159H84.4128V89.9279L84.2528 89.6239C84.4554 89.1013 84.7861 88.7066 85.2448 88.4399C85.7141 88.1626 86.2581 88.0239 86.8768 88.0239C87.5168 88.0239 88.0821 88.1626 88.5728 88.4399C89.0741 88.7173 89.4634 89.1066 89.7408 89.6079C90.0181 90.0986 90.1568 90.6693 90.1568 91.3199V96.9199H88.0608V91.8159C88.0608 91.4319 87.9861 91.1013 87.8368 90.8239C87.6874 90.5466 87.4794 90.3333 87.2128 90.1839C86.9568 90.0239 86.6528 89.9439 86.3008 89.9439C85.9594 89.9439 85.6554 90.0239 85.3888 90.1839C85.1221 90.3333 84.9141 90.5466 84.7648 90.8239C84.6154 91.1013 84.5408 91.4319 84.5408 91.8159V96.9199H82.4448ZM96.1211 97.1119C95.2571 97.1119 94.4785 96.9146 93.7851 96.5199C93.1025 96.1146 92.5638 95.5706 92.1691 94.8879C91.7745 94.1946 91.5771 93.4159 91.5771 92.5519C91.5771 91.6879 91.7745 90.9146 92.1691 90.2319C92.5638 89.5493 93.1025 89.0106 93.7851 88.6159C94.4785 88.2213 95.2571 88.0239 96.1211 88.0239C96.7398 88.0239 97.3158 88.1359 97.8491 88.3599C98.3825 88.5733 98.8411 88.8719 99.2251 89.2559C99.6198 89.6293 99.9025 90.0773 100.073 90.5999L98.2331 91.3999C98.0731 90.9626 97.8011 90.6106 97.4171 90.3439C97.0438 90.0773 96.6118 89.9439 96.1211 89.9439C95.6625 89.9439 95.2518 90.0559 94.8891 90.2799C94.5371 90.5039 94.2598 90.8133 94.0571 91.2079C93.8545 91.6026 93.7531 92.0559 93.7531 92.5679C93.7531 93.0799 93.8545 93.5333 94.0571 93.9279C94.2598 94.3226 94.5371 94.6319 94.8891 94.8559C95.2518 95.0799 95.6625 95.1919 96.1211 95.1919C96.6225 95.1919 97.0598 95.0586 97.4331 94.7919C97.8065 94.5253 98.0731 94.1679 98.2331 93.7199L100.073 94.5519C99.9025 95.0426 99.6251 95.4853 99.2411 95.8799C98.8571 96.2639 98.3985 96.5679 97.8651 96.7919C97.3318 97.0053 96.7505 97.1119 96.1211 97.1119ZM105.92 97.1119C105.066 97.1119 104.288 96.9146 103.584 96.5199C102.89 96.1253 102.336 95.5866 101.92 94.9039C101.514 94.2213 101.312 93.4426 101.312 92.5679C101.312 91.6933 101.514 90.9146 101.92 90.2319C102.336 89.5493 102.89 89.0106 103.584 88.6159C104.277 88.2213 105.056 88.0239 105.92 88.0239C106.773 88.0239 107.546 88.2213 108.24 88.6159C108.933 89.0106 109.482 89.5493 109.888 90.2319C110.304 90.9039 110.512 91.6826 110.512 92.5679C110.512 93.4426 110.304 94.2213 109.888 94.9039C109.472 95.5866 108.917 96.1253 108.224 96.5199C107.53 96.9146 106.762 97.1119 105.92 97.1119ZM105.92 95.1919C106.389 95.1919 106.8 95.0799 107.152 94.8559C107.514 94.6319 107.797 94.3226 108 93.9279C108.213 93.5226 108.32 93.0693 108.32 92.5679C108.32 92.0559 108.213 91.6079 108 91.2239C107.797 90.8293 107.514 90.5199 107.152 90.2959C106.8 90.0613 106.389 89.9439 105.92 89.9439C105.44 89.9439 105.018 90.0613 104.656 90.2959C104.293 90.5199 104.005 90.8293 103.792 91.2239C103.589 91.6079 103.488 92.0559 103.488 92.5679C103.488 93.0693 103.589 93.5226 103.792 93.9279C104.005 94.3226 104.293 94.6319 104.656 94.8559C105.018 95.0799 105.44 95.1919 105.92 95.1919ZM112.101 96.9199V88.2159H114.069V90.2319L113.845 89.8959C114.005 89.2666 114.325 88.7973 114.805 88.4879C115.285 88.1786 115.85 88.0239 116.501 88.0239C117.216 88.0239 117.845 88.2106 118.389 88.5839C118.933 88.9573 119.285 89.4479 119.445 90.0559L118.853 90.1039C119.12 89.4106 119.52 88.8933 120.053 88.5519C120.586 88.1999 121.2 88.0239 121.893 88.0239C122.512 88.0239 123.061 88.1626 123.541 88.4399C124.032 88.7173 124.416 89.1066 124.693 89.6079C124.97 90.0986 125.109 90.6693 125.109 91.3199V96.9199H123.013V91.8159C123.013 91.4319 122.944 91.1013 122.805 90.8239C122.666 90.5466 122.474 90.3333 122.229 90.1839C121.984 90.0239 121.685 89.9439 121.333 89.9439C121.002 89.9439 120.709 90.0239 120.453 90.1839C120.197 90.3333 120 90.5466 119.861 90.8239C119.722 91.1013 119.653 91.4319 119.653 91.8159V96.9199H117.557V91.8159C117.557 91.4319 117.488 91.1013 117.349 90.8239C117.21 90.5466 117.013 90.3333 116.757 90.1839C116.512 90.0239 116.218 89.9439 115.877 89.9439C115.546 89.9439 115.253 90.0239 114.997 90.1839C114.741 90.3333 114.544 90.5466 114.405 90.8239C114.266 91.1013 114.197 91.4319 114.197 91.8159V96.9199H112.101ZM126.882 96.9199V88.2159H128.978V96.9199H126.882ZM126.882 87.2399V84.9999H128.978V87.2399H126.882ZM130.914 96.9199V88.2159H132.882V89.9279L132.722 89.6239C132.924 89.1013 133.255 88.7066 133.714 88.4399C134.183 88.1626 134.727 88.0239 135.346 88.0239C135.986 88.0239 136.551 88.1626 137.042 88.4399C137.543 88.7173 137.932 89.1066 138.21 89.6079C138.487 90.0986 138.626 90.6693 138.626 91.3199V96.9199H136.53V91.8159C136.53 91.4319 136.455 91.1013 136.306 90.8239C136.156 90.5466 135.948 90.3333 135.682 90.1839C135.426 90.0239 135.122 89.9439 134.77 89.9439C134.428 89.9439 134.124 90.0239 133.858 90.1839C133.591 90.3333 133.383 90.5466 133.234 90.8239C133.084 91.1013 133.01 91.4319 133.01 91.8159V96.9199H130.914ZM144.622 100.44C143.971 100.44 143.369 100.333 142.814 100.12C142.259 99.9066 141.779 99.6079 141.374 99.2239C140.979 98.8506 140.691 98.4079 140.51 97.8959L142.462 97.1599C142.59 97.5653 142.841 97.8906 143.214 98.1359C143.598 98.3919 144.067 98.5199 144.622 98.5199C145.049 98.5199 145.422 98.4399 145.742 98.2799C146.073 98.1199 146.329 97.8853 146.51 97.5759C146.691 97.2773 146.782 96.9146 146.782 96.4879V94.5039L147.182 94.9839C146.883 95.5066 146.483 95.9013 145.982 96.1679C145.481 96.4346 144.91 96.5679 144.27 96.5679C143.459 96.5679 142.734 96.3813 142.094 96.0079C141.454 95.6346 140.953 95.1226 140.59 94.4719C140.227 93.8213 140.046 93.0906 140.046 92.2799C140.046 91.4586 140.227 90.7279 140.59 90.0879C140.953 89.4479 141.449 88.9466 142.078 88.5839C142.707 88.2106 143.422 88.0239 144.222 88.0239C144.873 88.0239 145.443 88.1626 145.934 88.4399C146.435 88.7066 146.851 89.0959 147.182 89.6079L146.894 90.1359V88.2159H148.878V96.4879C148.878 97.2453 148.691 97.9226 148.318 98.5199C147.955 99.1173 147.454 99.5866 146.814 99.9279C146.185 100.269 145.454 100.44 144.622 100.44ZM144.526 94.6319C144.974 94.6319 145.363 94.5359 145.694 94.3439C146.035 94.1413 146.302 93.8639 146.494 93.5119C146.686 93.1599 146.782 92.7546 146.782 92.2959C146.782 91.8479 146.681 91.4479 146.478 91.0959C146.286 90.7333 146.019 90.4506 145.678 90.2479C145.347 90.0453 144.963 89.9439 144.526 89.9439C144.089 89.9439 143.694 90.0453 143.342 90.2479C142.99 90.4506 142.713 90.7333 142.51 91.0959C142.318 91.4479 142.222 91.8479 142.222 92.2959C142.222 92.7439 142.318 93.1439 142.51 93.4959C142.713 93.8479 142.985 94.1253 143.326 94.3279C143.678 94.5306 144.078 94.6319 144.526 94.6319Z" fill="#657393"/>
<path d="M78.152 96.9199V84.9999H80.328V96.9199H78.152ZM82.4448 96.9199V88.2159H84.4128V89.9279L84.2528 89.6239C84.4554 89.1013 84.7861 88.7066 85.2448 88.4399C85.7141 88.1626 86.2581 88.0239 86.8768 88.0239C87.5168 88.0239 88.0821 88.1626 88.5728 88.4399C89.0741 88.7173 89.4634 89.1066 89.7408 89.6079C90.0181 90.0986 90.1568 90.6693 90.1568 91.3199V96.9199H88.0608V91.8159C88.0608 91.4319 87.9861 91.1013 87.8368 90.8239C87.6874 90.5466 87.4794 90.3333 87.2128 90.1839C86.9568 90.0239 86.6528 89.9439 86.3008 89.9439C85.9594 89.9439 85.6554 90.0239 85.3888 90.1839C85.1221 90.3333 84.9141 90.5466 84.7648 90.8239C84.6154 91.1013 84.5408 91.4319 84.5408 91.8159V96.9199H82.4448ZM96.1211 97.1119C95.2571 97.1119 94.4785 96.9146 93.7851 96.5199C93.1025 96.1146 92.5638 95.5706 92.1691 94.8879C91.7745 94.1946 91.5771 93.4159 91.5771 92.5519C91.5771 91.6879 91.7745 90.9146 92.1691 90.2319C92.5638 89.5493 93.1025 89.0106 93.7851 88.6159C94.4785 88.2213 95.2571 88.0239 96.1211 88.0239C96.7398 88.0239 97.3158 88.1359 97.8491 88.3599C98.3825 88.5733 98.8411 88.8719 99.2251 89.2559C99.6198 89.6293 99.9025 90.0773 100.073 90.5999L98.2331 91.3999C98.0731 90.9626 97.8011 90.6106 97.4171 90.3439C97.0438 90.0773 96.6118 89.9439 96.1211 89.9439C95.6625 89.9439 95.2518 90.0559 94.8891 90.2799C94.5371 90.5039 94.2598 90.8133 94.0571 91.2079C93.8545 91.6026 93.7531 92.0559 93.7531 92.5679C93.7531 93.0799 93.8545 93.5333 94.0571 93.9279C94.2598 94.3226 94.5371 94.6319 94.8891 94.8559C95.2518 95.0799 95.6625 95.1919 96.1211 95.1919C96.6225 95.1919 97.0598 95.0586 97.4331 94.7919C97.8065 94.5253 98.0731 94.1679 98.2331 93.7199L100.073 94.5519C99.9025 95.0426 99.6251 95.4853 99.2411 95.8799C98.8571 96.2639 98.3985 96.5679 97.8651 96.7919C97.3318 97.0053 96.7505 97.1119 96.1211 97.1119ZM105.92 97.1119C105.066 97.1119 104.288 96.9146 103.584 96.5199C102.89 96.1253 102.336 95.5866 101.92 94.9039C101.514 94.2213 101.312 93.4426 101.312 92.5679C101.312 91.6933 101.514 90.9146 101.92 90.2319C102.336 89.5493 102.89 89.0106 103.584 88.6159C104.277 88.2213 105.056 88.0239 105.92 88.0239C106.773 88.0239 107.546 88.2213 108.24 88.6159C108.933 89.0106 109.482 89.5493 109.888 90.2319C110.304 90.9039 110.512 91.6826 110.512 92.5679C110.512 93.4426 110.304 94.2213 109.888 94.9039C109.472 95.5866 108.917 96.1253 108.224 96.5199C107.53 96.9146 106.762 97.1119 105.92 97.1119ZM105.92 95.1919C106.389 95.1919 106.8 95.0799 107.152 94.8559C107.514 94.6319 107.797 94.3226 108 93.9279C108.213 93.5226 108.32 93.0693 108.32 92.5679C108.32 92.0559 108.213 91.6079 108 91.2239C107.797 90.8293 107.514 90.5199 107.152 90.2959C106.8 90.0613 106.389 89.9439 105.92 89.9439C105.44 89.9439 105.018 90.0613 104.656 90.2959C104.293 90.5199 104.005 90.8293 103.792 91.2239C103.589 91.6079 103.488 92.0559 103.488 92.5679C103.488 93.0693 103.589 93.5226 103.792 93.9279C104.005 94.3226 104.293 94.6319 104.656 94.8559C105.018 95.0799 105.44 95.1919 105.92 95.1919ZM112.101 96.9199V88.2159H114.069V90.2319L113.845 89.8959C114.005 89.2666 114.325 88.7973 114.805 88.4879C115.285 88.1786 115.85 88.0239 116.501 88.0239C117.216 88.0239 117.845 88.2106 118.389 88.5839C118.933 88.9573 119.285 89.4479 119.445 90.0559L118.853 90.1039C119.12 89.4106 119.52 88.8933 120.053 88.5519C120.586 88.1999 121.2 88.0239 121.893 88.0239C122.512 88.0239 123.061 88.1626 123.541 88.4399C124.032 88.7173 124.416 89.1066 124.693 89.6079C124.97 90.0986 125.109 90.6693 125.109 91.3199V96.9199H123.013V91.8159C123.013 91.4319 122.944 91.1013 122.805 90.8239C122.666 90.5466 122.474 90.3333 122.229 90.1839C121.984 90.0239 121.685 89.9439 121.333 89.9439C121.002 89.9439 120.709 90.0239 120.453 90.1839C120.197 90.3333 120 90.5466 119.861 90.8239C119.722 91.1013 119.653 91.4319 119.653 91.8159V96.9199H117.557V91.8159C117.557 91.4319 117.488 91.1013 117.349 90.8239C117.21 90.5466 117.013 90.3333 116.757 90.1839C116.512 90.0239 116.218 89.9439 115.877 89.9439C115.546 89.9439 115.253 90.0239 114.997 90.1839C114.741 90.3333 114.544 90.5466 114.405 90.8239C114.266 91.1013 114.197 91.4319 114.197 91.8159V96.9199H112.101ZM126.882 96.9199V88.2159H128.978V96.9199H126.882ZM126.882 87.2399V84.9999H128.978V87.2399H126.882ZM130.914 96.9199V88.2159H132.882V89.9279L132.722 89.6239C132.924 89.1013 133.255 88.7066 133.714 88.4399C134.183 88.1626 134.727 88.0239 135.346 88.0239C135.986 88.0239 136.551 88.1626 137.042 88.4399C137.543 88.7173 137.932 89.1066 138.21 89.6079C138.487 90.0986 138.626 90.6693 138.626 91.3199V96.9199H136.53V91.8159C136.53 91.4319 136.455 91.1013 136.306 90.8239C136.156 90.5466 135.948 90.3333 135.682 90.1839C135.426 90.0239 135.122 89.9439 134.77 89.9439C134.428 89.9439 134.124 90.0239 133.858 90.1839C133.591 90.3333 133.383 90.5466 133.234 90.8239C133.084 91.1013 133.01 91.4319 133.01 91.8159V96.9199H130.914ZM144.622 100.44C143.971 100.44 143.369 100.333 142.814 100.12C142.259 99.9066 141.779 99.6079 141.374 99.2239C140.979 98.8506 140.691 98.4079 140.51 97.8959L142.462 97.1599C142.59 97.5653 142.841 97.8906 143.214 98.1359C143.598 98.3919 144.067 98.5199 144.622 98.5199C145.049 98.5199 145.422 98.4399 145.742 98.2799C146.073 98.1199 146.329 97.8853 146.51 97.5759C146.691 97.2773 146.782 96.9146 146.782 96.4879V94.5039L147.182 94.9839C146.883 95.5066 146.483 95.9013 145.982 96.1679C145.481 96.4346 144.91 96.5679 144.27 96.5679C143.459 96.5679 142.734 96.3813 142.094 96.0079C141.454 95.6346 140.953 95.1226 140.59 94.4719C140.227 93.8213 140.046 93.0906 140.046 92.2799C140.046 91.4586 140.227 90.7279 140.59 90.0879C140.953 89.4479 141.449 88.9466 142.078 88.5839C142.707 88.2106 143.422 88.0239 144.222 88.0239C144.873 88.0239 145.443 88.1626 145.934 88.4399C146.435 88.7066 146.851 89.0959 147.182 89.6079L146.894 90.1359V88.2159H148.878V96.4879C148.878 97.2453 148.691 97.9226 148.318 98.5199C147.955 99.1173 147.454 99.5866 146.814 99.9279C146.185 100.269 145.454 100.44 144.622 100.44ZM144.526 94.6319C144.974 94.6319 145.363 94.5359 145.694 94.3439C146.035 94.1413 146.302 93.8639 146.494 93.5119C146.686 93.1599 146.782 92.7546 146.782 92.2959C146.782 91.8479 146.681 91.4479 146.478 91.0959C146.286 90.7333 146.019 90.4506 145.678 90.2479C145.347 90.0453 144.963 89.9439 144.526 89.9439C144.089 89.9439 143.694 90.0453 143.342 90.2479C142.99 90.4506 142.713 90.7333 142.51 91.0959C142.318 91.4479 142.222 91.8479 142.222 92.2959C142.222 92.7439 142.318 93.1439 142.51 93.4959C142.713 93.8479 142.985 94.1253 143.326 94.3279C143.678 94.5306 144.078 94.6319 144.526 94.6319Z" fill="black" fill-opacity="0.2"/>
<defs>
<filter id="filter0_bd_16_869" x="-11.6637" y="-14.299" width="251.23" height="251.963" filterUnits="userSpaceOnUse" color-interpolation-filters="sRGB">
<feFlood flood-opacity="0" result="BackgroundImageFix"/>
<feGaussianBlur in="BackgroundImage" stdDeviation="14.649"/>
<feComposite in2="SourceAlpha" operator="in" result="effect1_backgroundBlur_16_869"/>
<feColorMatrix in="SourceAlpha" type="matrix" values="0 0 0 0 0 0 0 0 0 0 0 0 0 0 0 0 0 0 127 0" result="hardAlpha"/>
<feOffset dy="2.9298"/>
<feGaussianBlur stdDeviation="8.7894"/>
<feComposite in2="hardAlpha" operator="out"/>
<feColorMatrix type="matrix" values="0 0 0 0 0 0 0 0 0 0 0 0 0 0 0 0 0 0 0.25 0"/>
<feBlend mode="normal" in2="effect1_backgroundBlur_16_869" result="effect2_dropShadow_16_869"/>
<feBlend mode="normal" in="SourceGraphic" in2="effect2_dropShadow_16_869" result="shape"/>
</filter>
<linearGradient id="paint0_linear_16_869" x1="57.8242" y1="-0.30683" x2="244.559" y2="21.9295" gradientUnits="userSpaceOnUse">
<stop stop-color="white" stop-opacity="0.6"/>
<stop offset="1" stop-color="white" stop-opacity="0.25"/>
</linearGradient>
<linearGradient id="paint1_linear_16_869" x1="73.6382" y1="94.5479" x2="178.859" y2="95.9564" gradientUnits="userSpaceOnUse">
<stop stop-color="#06F0FE"/>
<stop offset="1" stop-color="#025CF1"/>
</linearGradient>
<clipPath id="clip0_16_869">
<rect width="179.591" height="139.251" fill="white" transform="translate(23.9887 18.6885)"/>
</clipPath>
</defs>
</svg>
