<svg width="229" height="229" viewBox="0 0 229 229" fill="none" xmlns="http://www.w3.org/2000/svg">
<g opacity="0.4" filter="url(#filter0_bd_16_868)">
<ellipse cx="114.317" cy="111.683" rx="96.3172" ry="96.6834" fill="url(#paint0_linear_16_868)" fill-opacity="0.2" shape-rendering="crispEdges"/>
</g>
<path d="M83.2255 137.238L91.3215 126.806L92.0575 127.574C91.7375 127.809 91.4282 128.001 91.1295 128.15C90.8309 128.3 90.5109 128.406 90.1695 128.47C89.8282 128.534 89.4655 128.566 89.0815 128.566C87.6309 128.566 86.3402 128.236 85.2095 127.574C84.0789 126.913 83.1829 126.017 82.5215 124.886C81.8815 123.734 81.5615 122.433 81.5615 120.982C81.5615 119.446 81.9135 118.081 82.6175 116.886C83.3429 115.692 84.3242 114.753 85.5615 114.07C86.8202 113.366 88.2495 113.014 89.8495 113.014C91.4709 113.014 92.9002 113.356 94.1375 114.038C95.3749 114.721 96.3455 115.66 97.0495 116.854C97.7749 118.028 98.1375 119.382 98.1375 120.918C98.1375 121.686 98.0522 122.454 97.8815 123.222C97.7109 123.99 97.4015 124.812 96.9535 125.686C96.5269 126.54 95.9082 127.51 95.0975 128.598L88.4415 137.238H83.2255ZM89.8495 124.918C90.5962 124.918 91.2575 124.758 91.8335 124.438C92.4309 124.097 92.9002 123.628 93.2415 123.03C93.5829 122.412 93.7535 121.718 93.7535 120.95C93.7535 120.14 93.5722 119.436 93.2095 118.838C92.8682 118.241 92.4095 117.772 91.8335 117.43C91.2575 117.089 90.5962 116.918 89.8495 116.918C89.1242 116.918 88.4629 117.089 87.8655 117.43C87.2682 117.772 86.7882 118.241 86.4255 118.838C86.0842 119.436 85.9135 120.14 85.9135 120.95C85.9135 121.718 86.0842 122.412 86.4255 123.03C86.7882 123.628 87.2682 124.097 87.8655 124.438C88.4629 124.758 89.1242 124.918 89.8495 124.918ZM104.364 137.238V117.11H99.7555V113.398H108.716V137.238H104.364Z" fill="white"/>
<path d="M116.896 137.238V126.808H118.8V132.24L118.282 132.058L122.72 126.808H125.114L120.956 131.736L121.068 130.392L125.24 137.238H123L120.2 132.646L118.8 134.312V137.238H116.896ZM130.122 137.406C129.571 137.406 129.063 137.299 128.596 137.084C128.139 136.86 127.775 136.543 127.504 136.132L127.686 135.768V137.238H125.964V126.64H127.798V131.134L127.518 130.756C127.779 130.346 128.134 130.028 128.582 129.804C129.03 129.571 129.548 129.454 130.136 129.454C130.855 129.454 131.503 129.632 132.082 129.986C132.661 130.341 133.118 130.817 133.454 131.414C133.799 132.012 133.972 132.684 133.972 133.43C133.972 134.168 133.804 134.84 133.468 135.446C133.132 136.053 132.675 136.534 132.096 136.888C131.517 137.234 130.859 137.406 130.122 137.406ZM129.912 135.726C130.332 135.726 130.705 135.628 131.032 135.432C131.359 135.236 131.611 134.966 131.788 134.62C131.975 134.275 132.068 133.878 132.068 133.43C132.068 132.982 131.975 132.59 131.788 132.254C131.611 131.909 131.359 131.638 131.032 131.442C130.705 131.237 130.332 131.134 129.912 131.134C129.511 131.134 129.147 131.232 128.82 131.428C128.503 131.624 128.251 131.9 128.064 132.254C127.887 132.6 127.798 132.992 127.798 133.43C127.798 133.878 127.887 134.275 128.064 134.62C128.251 134.966 128.503 135.236 128.82 135.432C129.147 135.628 129.511 135.726 129.912 135.726ZM134.46 138.918L139.108 127.368H141.11L136.462 138.918H134.46ZM144.79 137.406C143.978 137.406 143.269 137.215 142.662 136.832C142.065 136.44 141.654 135.913 141.43 135.25L142.802 134.592C142.998 135.022 143.269 135.358 143.614 135.6C143.969 135.843 144.361 135.964 144.79 135.964C145.126 135.964 145.392 135.89 145.588 135.74C145.784 135.591 145.882 135.395 145.882 135.152C145.882 135.003 145.84 134.882 145.756 134.788C145.682 134.686 145.574 134.602 145.434 134.536C145.304 134.462 145.159 134.401 145 134.354L143.754 134.004C143.11 133.818 142.62 133.533 142.284 133.15C141.958 132.768 141.794 132.315 141.794 131.792C141.794 131.326 141.911 130.92 142.144 130.574C142.387 130.22 142.718 129.944 143.138 129.748C143.568 129.552 144.058 129.454 144.608 129.454C145.327 129.454 145.962 129.627 146.512 129.972C147.063 130.318 147.455 130.803 147.688 131.428L146.288 132.086C146.158 131.741 145.938 131.466 145.63 131.26C145.322 131.055 144.977 130.952 144.594 130.952C144.286 130.952 144.044 131.022 143.866 131.162C143.689 131.302 143.6 131.484 143.6 131.708C143.6 131.848 143.638 131.97 143.712 132.072C143.787 132.175 143.89 132.259 144.02 132.324C144.16 132.39 144.319 132.45 144.496 132.506L145.714 132.87C146.34 133.057 146.82 133.337 147.156 133.71C147.502 134.084 147.674 134.541 147.674 135.082C147.674 135.54 147.553 135.946 147.31 136.3C147.068 136.646 146.732 136.916 146.302 137.112C145.873 137.308 145.369 137.406 144.79 137.406Z" fill="url(#paint1_linear_16_868)" fill-opacity="0.94"/>
<path d="M84.024 97.1129C83.1493 97.1129 82.3333 96.9582 81.576 96.6489C80.8187 96.3396 80.1573 95.9076 79.592 95.3529C79.0267 94.7982 78.584 94.1476 78.264 93.4009C77.9547 92.6436 77.8 91.8276 77.8 90.9529C77.8 90.0676 77.9547 89.2516 78.264 88.5049C78.5733 87.7582 79.0107 87.1076 79.576 86.5529C80.1413 85.9982 80.8027 85.5716 81.56 85.2729C82.3173 84.9636 83.1387 84.8089 84.024 84.8089C84.9093 84.8089 85.7307 84.9636 86.488 85.2729C87.2453 85.5822 87.9067 86.0142 88.472 86.5689C89.0373 87.1129 89.4747 87.7582 89.784 88.5049C90.104 89.2516 90.264 90.0676 90.264 90.9529C90.264 91.8276 90.104 92.6436 89.784 93.4009C89.464 94.1476 89.0213 94.7982 88.456 95.3529C87.8907 95.9076 87.2293 96.3396 86.472 96.6489C85.7253 96.9582 84.9093 97.1129 84.024 97.1129ZM84.024 95.1289C84.6107 95.1289 85.1493 95.0276 85.64 94.8249C86.1307 94.6116 86.5573 94.3182 86.92 93.9449C87.2933 93.5716 87.576 93.1289 87.768 92.6169C87.9707 92.1049 88.072 91.5502 88.072 90.9529C88.072 90.3556 87.9707 89.8062 87.768 89.3049C87.576 88.7929 87.2933 88.3502 86.92 87.9769C86.5573 87.5929 86.1307 87.2996 85.64 87.0969C85.1493 86.8942 84.6107 86.7929 84.024 86.7929C83.448 86.7929 82.9147 86.8942 82.424 87.0969C81.9333 87.2996 81.5013 87.5929 81.128 87.9769C80.7653 88.3502 80.4827 88.7929 80.28 89.3049C80.0773 89.8062 79.976 90.3556 79.976 90.9529C79.976 91.5502 80.0773 92.1049 80.28 92.6169C80.4827 93.1289 80.7653 93.5716 81.128 93.9449C81.5013 94.3182 81.9333 94.6116 82.424 94.8249C82.9147 95.0276 83.448 95.1289 84.024 95.1289ZM95.1269 97.1129C94.4549 97.1129 93.8682 96.9636 93.3669 96.6649C92.8762 96.3662 92.4975 95.9502 92.2309 95.4169C91.9749 94.8836 91.8469 94.2596 91.8469 93.5449V88.2169H93.9429V93.3689C93.9429 93.7316 94.0122 94.0516 94.1509 94.3289C94.3002 94.5956 94.5082 94.8089 94.7749 94.9689C95.0522 95.1182 95.3615 95.1929 95.7029 95.1929C96.0442 95.1929 96.3482 95.1182 96.6149 94.9689C96.8815 94.8089 97.0895 94.5902 97.2389 94.3129C97.3882 94.0356 97.4629 93.7049 97.4629 93.3209V88.2169H99.5589V96.9209H97.5749V95.2089L97.7509 95.5129C97.5482 96.0462 97.2122 96.4462 96.7429 96.7129C96.2842 96.9796 95.7455 97.1129 95.1269 97.1129ZM105.475 97.0169C104.494 97.0169 103.731 96.7502 103.187 96.2169C102.654 95.6729 102.387 94.9102 102.387 93.9289V90.0889H100.883V88.2169H101.043C101.47 88.2169 101.801 88.1049 102.035 87.8809C102.27 87.6569 102.387 87.3316 102.387 86.9049V86.2329H104.483V88.2169H106.483V90.0889H104.483V93.8169C104.483 94.1049 104.531 94.3502 104.627 94.5529C104.734 94.7556 104.894 94.9102 105.107 95.0169C105.331 95.1236 105.614 95.1769 105.955 95.1769C106.03 95.1769 106.115 95.1716 106.211 95.1609C106.318 95.1502 106.419 95.1396 106.515 95.1289V96.9209C106.366 96.9422 106.195 96.9636 106.003 96.9849C105.811 97.0062 105.635 97.0169 105.475 97.0169ZM112.263 100.441C111.612 100.441 111.009 100.334 110.455 100.121C109.9 99.9076 109.42 99.6089 109.015 99.2249C108.62 98.8516 108.332 98.4089 108.151 97.8969L110.103 97.1609C110.231 97.5662 110.481 97.8916 110.855 98.1369C111.239 98.3929 111.708 98.5209 112.263 98.5209C112.689 98.5209 113.063 98.4409 113.383 98.2809C113.713 98.1209 113.969 97.8862 114.151 97.5769C114.332 97.2782 114.423 96.9156 114.423 96.4889V94.5049L114.823 94.9849C114.524 95.5076 114.124 95.9022 113.623 96.1689C113.121 96.4356 112.551 96.5689 111.911 96.5689C111.1 96.5689 110.375 96.3822 109.735 96.0089C109.095 95.6356 108.593 95.1236 108.231 94.4729C107.868 93.8222 107.687 93.0916 107.687 92.2809C107.687 91.4596 107.868 90.7289 108.231 90.0889C108.593 89.4489 109.089 88.9476 109.719 88.5849C110.348 88.2116 111.063 88.0249 111.863 88.0249C112.513 88.0249 113.084 88.1636 113.575 88.4409C114.076 88.7076 114.492 89.0969 114.823 89.6089L114.535 90.1369V88.2169H116.519V96.4889C116.519 97.2462 116.332 97.9236 115.959 98.5209C115.596 99.1182 115.095 99.5876 114.455 99.9289C113.825 100.27 113.095 100.441 112.263 100.441ZM112.167 94.6329C112.615 94.6329 113.004 94.5369 113.335 94.3449C113.676 94.1422 113.943 93.8649 114.135 93.5129C114.327 93.1609 114.423 92.7556 114.423 92.2969C114.423 91.8489 114.321 91.4489 114.119 91.0969C113.927 90.7342 113.66 90.4516 113.319 90.2489C112.988 90.0462 112.604 89.9449 112.167 89.9449C111.729 89.9449 111.335 90.0462 110.983 90.2489C110.631 90.4516 110.353 90.7342 110.151 91.0969C109.959 91.4489 109.863 91.8489 109.863 92.2969C109.863 92.7449 109.959 93.1449 110.151 93.4969C110.353 93.8489 110.625 94.1262 110.967 94.3289C111.319 94.5316 111.719 94.6329 112.167 94.6329ZM122.732 97.1129C121.879 97.1129 121.1 96.9156 120.396 96.5209C119.703 96.1262 119.148 95.5876 118.732 94.9049C118.327 94.2222 118.124 93.4436 118.124 92.5689C118.124 91.6942 118.327 90.9156 118.732 90.2329C119.148 89.5502 119.703 89.0116 120.396 88.6169C121.089 88.2222 121.868 88.0249 122.732 88.0249C123.585 88.0249 124.359 88.2222 125.052 88.6169C125.745 89.0116 126.295 89.5502 126.7 90.2329C127.116 90.9049 127.324 91.6836 127.324 92.5689C127.324 93.4436 127.116 94.2222 126.7 94.9049C126.284 95.5876 125.729 96.1262 125.036 96.5209C124.343 96.9156 123.575 97.1129 122.732 97.1129ZM122.732 95.1929C123.201 95.1929 123.612 95.0809 123.964 94.8569C124.327 94.6329 124.609 94.3236 124.812 93.9289C125.025 93.5236 125.132 93.0702 125.132 92.5689C125.132 92.0569 125.025 91.6089 124.812 91.2249C124.609 90.8302 124.327 90.5209 123.964 90.2969C123.612 90.0622 123.201 89.9449 122.732 89.9449C122.252 89.9449 121.831 90.0622 121.468 90.2969C121.105 90.5209 120.817 90.8302 120.604 91.2249C120.401 91.6089 120.3 92.0569 120.3 92.5689C120.3 93.0702 120.401 93.5236 120.604 93.9289C120.817 94.3236 121.105 94.6329 121.468 94.8569C121.831 95.0809 122.252 95.1929 122.732 95.1929ZM128.914 96.9209V88.2169H131.01V96.9209H128.914ZM128.914 87.2409V85.0009H131.01V87.2409H128.914ZM132.945 96.9209V88.2169H134.913V89.9289L134.753 89.6249C134.955 89.1022 135.286 88.7076 135.745 88.4409C136.214 88.1636 136.758 88.0249 137.377 88.0249C138.017 88.0249 138.582 88.1636 139.073 88.4409C139.574 88.7182 139.963 89.1076 140.241 89.6089C140.518 90.0996 140.657 90.6702 140.657 91.3209V96.9209H138.561V91.8169C138.561 91.4329 138.486 91.1022 138.337 90.8249C138.187 90.5476 137.979 90.3342 137.713 90.1849C137.457 90.0249 137.153 89.9449 136.801 89.9449C136.459 89.9449 136.155 90.0249 135.889 90.1849C135.622 90.3342 135.414 90.5476 135.265 90.8249C135.115 91.1022 135.041 91.4329 135.041 91.8169V96.9209H132.945ZM146.653 100.441C146.002 100.441 145.4 100.334 144.845 100.121C144.29 99.9076 143.81 99.6089 143.405 99.2249C143.01 98.8516 142.722 98.4089 142.541 97.8969L144.493 97.1609C144.621 97.5662 144.872 97.8916 145.245 98.1369C145.629 98.3929 146.098 98.5209 146.653 98.5209C147.08 98.5209 147.453 98.4409 147.773 98.2809C148.104 98.1209 148.36 97.8862 148.541 97.5769C148.722 97.2782 148.813 96.9156 148.813 96.4889V94.5049L149.213 94.9849C148.914 95.5076 148.514 95.9022 148.013 96.1689C147.512 96.4356 146.941 96.5689 146.301 96.5689C145.49 96.5689 144.765 96.3822 144.125 96.0089C143.485 95.6356 142.984 95.1236 142.621 94.4729C142.258 93.8222 142.077 93.0916 142.077 92.2809C142.077 91.4596 142.258 90.7289 142.621 90.0889C142.984 89.4489 143.48 88.9476 144.109 88.5849C144.738 88.2116 145.453 88.0249 146.253 88.0249C146.904 88.0249 147.474 88.1636 147.965 88.4409C148.466 88.7076 148.882 89.0969 149.213 89.6089L148.925 90.1369V88.2169H150.909V96.4889C150.909 97.2462 150.722 97.9236 150.349 98.5209C149.986 99.1182 149.485 99.5876 148.845 99.9289C148.216 100.27 147.485 100.441 146.653 100.441ZM146.557 94.6329C147.005 94.6329 147.394 94.5369 147.725 94.3449C148.066 94.1422 148.333 93.8649 148.525 93.5129C148.717 93.1609 148.813 92.7556 148.813 92.2969C148.813 91.8489 148.712 91.4489 148.509 91.0969C148.317 90.7342 148.05 90.4516 147.709 90.2489C147.378 90.0462 146.994 89.9449 146.557 89.9449C146.12 89.9449 145.725 90.0462 145.373 90.2489C145.021 90.4516 144.744 90.7342 144.541 91.0969C144.349 91.4489 144.253 91.8489 144.253 92.2969C144.253 92.7449 144.349 93.1449 144.541 93.4969C144.744 93.8489 145.016 94.1262 145.357 94.3289C145.709 94.5316 146.109 94.6329 146.557 94.6329Z" fill="#657393"/>
<path d="M84.024 97.1129C83.1493 97.1129 82.3333 96.9582 81.576 96.6489C80.8187 96.3396 80.1573 95.9076 79.592 95.3529C79.0267 94.7982 78.584 94.1476 78.264 93.4009C77.9547 92.6436 77.8 91.8276 77.8 90.9529C77.8 90.0676 77.9547 89.2516 78.264 88.5049C78.5733 87.7582 79.0107 87.1076 79.576 86.5529C80.1413 85.9982 80.8027 85.5716 81.56 85.2729C82.3173 84.9636 83.1387 84.8089 84.024 84.8089C84.9093 84.8089 85.7307 84.9636 86.488 85.2729C87.2453 85.5822 87.9067 86.0142 88.472 86.5689C89.0373 87.1129 89.4747 87.7582 89.784 88.5049C90.104 89.2516 90.264 90.0676 90.264 90.9529C90.264 91.8276 90.104 92.6436 89.784 93.4009C89.464 94.1476 89.0213 94.7982 88.456 95.3529C87.8907 95.9076 87.2293 96.3396 86.472 96.6489C85.7253 96.9582 84.9093 97.1129 84.024 97.1129ZM84.024 95.1289C84.6107 95.1289 85.1493 95.0276 85.64 94.8249C86.1307 94.6116 86.5573 94.3182 86.92 93.9449C87.2933 93.5716 87.576 93.1289 87.768 92.6169C87.9707 92.1049 88.072 91.5502 88.072 90.9529C88.072 90.3556 87.9707 89.8062 87.768 89.3049C87.576 88.7929 87.2933 88.3502 86.92 87.9769C86.5573 87.5929 86.1307 87.2996 85.64 87.0969C85.1493 86.8942 84.6107 86.7929 84.024 86.7929C83.448 86.7929 82.9147 86.8942 82.424 87.0969C81.9333 87.2996 81.5013 87.5929 81.128 87.9769C80.7653 88.3502 80.4827 88.7929 80.28 89.3049C80.0773 89.8062 79.976 90.3556 79.976 90.9529C79.976 91.5502 80.0773 92.1049 80.28 92.6169C80.4827 93.1289 80.7653 93.5716 81.128 93.9449C81.5013 94.3182 81.9333 94.6116 82.424 94.8249C82.9147 95.0276 83.448 95.1289 84.024 95.1289ZM95.1269 97.1129C94.4549 97.1129 93.8682 96.9636 93.3669 96.6649C92.8762 96.3662 92.4975 95.9502 92.2309 95.4169C91.9749 94.8836 91.8469 94.2596 91.8469 93.5449V88.2169H93.9429V93.3689C93.9429 93.7316 94.0122 94.0516 94.1509 94.3289C94.3002 94.5956 94.5082 94.8089 94.7749 94.9689C95.0522 95.1182 95.3615 95.1929 95.7029 95.1929C96.0442 95.1929 96.3482 95.1182 96.6149 94.9689C96.8815 94.8089 97.0895 94.5902 97.2389 94.3129C97.3882 94.0356 97.4629 93.7049 97.4629 93.3209V88.2169H99.5589V96.9209H97.5749V95.2089L97.7509 95.5129C97.5482 96.0462 97.2122 96.4462 96.7429 96.7129C96.2842 96.9796 95.7455 97.1129 95.1269 97.1129ZM105.475 97.0169C104.494 97.0169 103.731 96.7502 103.187 96.2169C102.654 95.6729 102.387 94.9102 102.387 93.9289V90.0889H100.883V88.2169H101.043C101.47 88.2169 101.801 88.1049 102.035 87.8809C102.27 87.6569 102.387 87.3316 102.387 86.9049V86.2329H104.483V88.2169H106.483V90.0889H104.483V93.8169C104.483 94.1049 104.531 94.3502 104.627 94.5529C104.734 94.7556 104.894 94.9102 105.107 95.0169C105.331 95.1236 105.614 95.1769 105.955 95.1769C106.03 95.1769 106.115 95.1716 106.211 95.1609C106.318 95.1502 106.419 95.1396 106.515 95.1289V96.9209C106.366 96.9422 106.195 96.9636 106.003 96.9849C105.811 97.0062 105.635 97.0169 105.475 97.0169ZM112.263 100.441C111.612 100.441 111.009 100.334 110.455 100.121C109.9 99.9076 109.42 99.6089 109.015 99.2249C108.62 98.8516 108.332 98.4089 108.151 97.8969L110.103 97.1609C110.231 97.5662 110.481 97.8916 110.855 98.1369C111.239 98.3929 111.708 98.5209 112.263 98.5209C112.689 98.5209 113.063 98.4409 113.383 98.2809C113.713 98.1209 113.969 97.8862 114.151 97.5769C114.332 97.2782 114.423 96.9156 114.423 96.4889V94.5049L114.823 94.9849C114.524 95.5076 114.124 95.9022 113.623 96.1689C113.121 96.4356 112.551 96.5689 111.911 96.5689C111.1 96.5689 110.375 96.3822 109.735 96.0089C109.095 95.6356 108.593 95.1236 108.231 94.4729C107.868 93.8222 107.687 93.0916 107.687 92.2809C107.687 91.4596 107.868 90.7289 108.231 90.0889C108.593 89.4489 109.089 88.9476 109.719 88.5849C110.348 88.2116 111.063 88.0249 111.863 88.0249C112.513 88.0249 113.084 88.1636 113.575 88.4409C114.076 88.7076 114.492 89.0969 114.823 89.6089L114.535 90.1369V88.2169H116.519V96.4889C116.519 97.2462 116.332 97.9236 115.959 98.5209C115.596 99.1182 115.095 99.5876 114.455 99.9289C113.825 100.27 113.095 100.441 112.263 100.441ZM112.167 94.6329C112.615 94.6329 113.004 94.5369 113.335 94.3449C113.676 94.1422 113.943 93.8649 114.135 93.5129C114.327 93.1609 114.423 92.7556 114.423 92.2969C114.423 91.8489 114.321 91.4489 114.119 91.0969C113.927 90.7342 113.66 90.4516 113.319 90.2489C112.988 90.0462 112.604 89.9449 112.167 89.9449C111.729 89.9449 111.335 90.0462 110.983 90.2489C110.631 90.4516 110.353 90.7342 110.151 91.0969C109.959 91.4489 109.863 91.8489 109.863 92.2969C109.863 92.7449 109.959 93.1449 110.151 93.4969C110.353 93.8489 110.625 94.1262 110.967 94.3289C111.319 94.5316 111.719 94.6329 112.167 94.6329ZM122.732 97.1129C121.879 97.1129 121.1 96.9156 120.396 96.5209C119.703 96.1262 119.148 95.5876 118.732 94.9049C118.327 94.2222 118.124 93.4436 118.124 92.5689C118.124 91.6942 118.327 90.9156 118.732 90.2329C119.148 89.5502 119.703 89.0116 120.396 88.6169C121.089 88.2222 121.868 88.0249 122.732 88.0249C123.585 88.0249 124.359 88.2222 125.052 88.6169C125.745 89.0116 126.295 89.5502 126.7 90.2329C127.116 90.9049 127.324 91.6836 127.324 92.5689C127.324 93.4436 127.116 94.2222 126.7 94.9049C126.284 95.5876 125.729 96.1262 125.036 96.5209C124.343 96.9156 123.575 97.1129 122.732 97.1129ZM122.732 95.1929C123.201 95.1929 123.612 95.0809 123.964 94.8569C124.327 94.6329 124.609 94.3236 124.812 93.9289C125.025 93.5236 125.132 93.0702 125.132 92.5689C125.132 92.0569 125.025 91.6089 124.812 91.2249C124.609 90.8302 124.327 90.5209 123.964 90.2969C123.612 90.0622 123.201 89.9449 122.732 89.9449C122.252 89.9449 121.831 90.0622 121.468 90.2969C121.105 90.5209 120.817 90.8302 120.604 91.2249C120.401 91.6089 120.3 92.0569 120.3 92.5689C120.3 93.0702 120.401 93.5236 120.604 93.9289C120.817 94.3236 121.105 94.6329 121.468 94.8569C121.831 95.0809 122.252 95.1929 122.732 95.1929ZM128.914 96.9209V88.2169H131.01V96.9209H128.914ZM128.914 87.2409V85.0009H131.01V87.2409H128.914ZM132.945 96.9209V88.2169H134.913V89.9289L134.753 89.6249C134.955 89.1022 135.286 88.7076 135.745 88.4409C136.214 88.1636 136.758 88.0249 137.377 88.0249C138.017 88.0249 138.582 88.1636 139.073 88.4409C139.574 88.7182 139.963 89.1076 140.241 89.6089C140.518 90.0996 140.657 90.6702 140.657 91.3209V96.9209H138.561V91.8169C138.561 91.4329 138.486 91.1022 138.337 90.8249C138.187 90.5476 137.979 90.3342 137.713 90.1849C137.457 90.0249 137.153 89.9449 136.801 89.9449C136.459 89.9449 136.155 90.0249 135.889 90.1849C135.622 90.3342 135.414 90.5476 135.265 90.8249C135.115 91.1022 135.041 91.4329 135.041 91.8169V96.9209H132.945ZM146.653 100.441C146.002 100.441 145.4 100.334 144.845 100.121C144.29 99.9076 143.81 99.6089 143.405 99.2249C143.01 98.8516 142.722 98.4089 142.541 97.8969L144.493 97.1609C144.621 97.5662 144.872 97.8916 145.245 98.1369C145.629 98.3929 146.098 98.5209 146.653 98.5209C147.08 98.5209 147.453 98.4409 147.773 98.2809C148.104 98.1209 148.36 97.8862 148.541 97.5769C148.722 97.2782 148.813 96.9156 148.813 96.4889V94.5049L149.213 94.9849C148.914 95.5076 148.514 95.9022 148.013 96.1689C147.512 96.4356 146.941 96.5689 146.301 96.5689C145.49 96.5689 144.765 96.3822 144.125 96.0089C143.485 95.6356 142.984 95.1236 142.621 94.4729C142.258 93.8222 142.077 93.0916 142.077 92.2809C142.077 91.4596 142.258 90.7289 142.621 90.0889C142.984 89.4489 143.48 88.9476 144.109 88.5849C144.738 88.2116 145.453 88.0249 146.253 88.0249C146.904 88.0249 147.474 88.1636 147.965 88.4409C148.466 88.7076 148.882 89.0969 149.213 89.6089L148.925 90.1369V88.2169H150.909V96.4889C150.909 97.2462 150.722 97.9236 150.349 98.5209C149.986 99.1182 149.485 99.5876 148.845 99.9289C148.216 100.27 147.485 100.441 146.653 100.441ZM146.557 94.6329C147.005 94.6329 147.394 94.5369 147.725 94.3449C148.066 94.1422 148.333 93.8649 148.525 93.5129C148.717 93.1609 148.813 92.7556 148.813 92.2969C148.813 91.8489 148.712 91.4489 148.509 91.0969C148.317 90.7342 148.05 90.4516 147.709 90.2489C147.378 90.0462 146.994 89.9449 146.557 89.9449C146.12 89.9449 145.725 90.0462 145.373 90.2489C145.021 90.4516 144.744 90.7342 144.541 91.0969C144.349 91.4489 144.253 91.8489 144.253 92.2969C144.253 92.7449 144.349 93.1449 144.541 93.4969C144.744 93.8489 145.016 94.1262 145.357 94.3289C145.709 94.5316 146.109 94.6329 146.557 94.6329Z" fill="black" fill-opacity="0.2"/>
<g clip-path="url(#clip0_16_868)">
<mask id="mask0_16_868" style="mask-type:alpha" maskUnits="userSpaceOnUse" x="24" y="20" width="181" height="181">
<path fill-rule="evenodd" clip-rule="evenodd" d="M114.555 200.067C164.056 200.067 204.184 159.806 204.184 110.142C204.184 60.4769 164.056 20.2158 114.555 20.2158C65.0549 20.2158 24.9269 60.4769 24.9269 110.142C24.9269 159.806 65.0549 200.067 114.555 200.067ZM114.556 187.651C157.222 187.651 191.81 152.948 191.81 110.14C191.81 67.3323 157.222 32.6296 114.556 32.6296C71.8891 32.6296 37.3012 67.3323 37.3012 110.14C37.3012 152.948 71.8891 187.651 114.556 187.651Z" fill="#D9D9D9"/>
</mask>
<g mask="url(#mask0_16_868)">
<path d="M108.851 17.5479L110.344 34.6432" stroke="#687388" stroke-width="1.4649" stroke-miterlimit="10" stroke-linecap="round"/>
<path d="M100.867 18.6016L103.753 35.0101" stroke="#687388" stroke-width="1.4649" stroke-miterlimit="10" stroke-linecap="round"/>
<path d="M93.0049 20.3506L97.1873 35.9963" stroke="#687388" stroke-width="1.4649" stroke-miterlimit="10" stroke-linecap="round"/>
<path d="M85.3263 22.7783L90.6951 37.5659" stroke="#687388" stroke-width="1.4649" stroke-miterlimit="10" stroke-linecap="round"/>
<path d="M77.8876 25.8662L84.3317 39.7173" stroke="#687388" stroke-width="1.4649" stroke-miterlimit="10" stroke-linecap="round"/>
<path d="M78.1494 42.4496L70.7444 29.5928" stroke="#687388" stroke-width="1.4649" stroke-miterlimit="10" stroke-linecap="round"/>
<path d="M63.9535 33.9297L72.2093 45.7473" stroke="#687388" stroke-width="1.4649" stroke-miterlimit="10" stroke-linecap="round"/>
<path d="M66.5629 49.5921L57.5653 38.8438" stroke="#687388" stroke-width="1.4649" stroke-miterlimit="10" stroke-linecap="round"/>
<path d="M51.6265 44.2979L61.2686 53.963" stroke="#687388" stroke-width="1.4649" stroke-miterlimit="10" stroke-linecap="round"/>
<path d="M56.3773 58.8183L46.1869 50.2471" stroke="#687388" stroke-width="1.4649" stroke-miterlimit="10" stroke-linecap="round"/>
<path d="M41.2852 56.6523L51.9299 64.1243" stroke="#687388" stroke-width="1.4649" stroke-miterlimit="10" stroke-linecap="round"/>
<path d="M47.9729 69.8348L36.9584 63.46" stroke="#687388" stroke-width="1.4649" stroke-miterlimit="10" stroke-linecap="round"/>
<path d="M177.75 144.94L196.834 155.986" stroke="#687388" stroke-width="1.4649" stroke-miterlimit="10" stroke-linecap="round"/>
<path d="M33.2407 70.6201L44.5503 75.9064" stroke="#687388" stroke-width="1.4649" stroke-miterlimit="10" stroke-linecap="round"/>
<path d="M200.552 148.822L180.4 139.402" stroke="#687388" stroke-width="1.4649" stroke-miterlimit="10" stroke-linecap="round"/>
<path d="M41.6982 82.2877L30.1599 78.0781" stroke="#687388" stroke-width="1.4649" stroke-miterlimit="10" stroke-linecap="round"/>
<path d="M182.566 133.681L203.635 141.367" stroke="#687388" stroke-width="1.4649" stroke-miterlimit="10" stroke-linecap="round"/>
<path d="M27.7383 85.7734L39.4476 88.918" stroke="#687388" stroke-width="1.4649" stroke-miterlimit="10" stroke-linecap="round"/>
<path d="M206.054 133.667L184.269 127.816" stroke="#687388" stroke-width="1.4649" stroke-miterlimit="10" stroke-linecap="round"/>
<path d="M37.8241 95.7446L25.9951 93.6543" stroke="#7D2EFF" stroke-width="1.4649" stroke-miterlimit="10" stroke-linecap="round"/>
<path d="M185.487 121.845L207.799 125.789" stroke="#687388" stroke-width="1.4649" stroke-miterlimit="10" stroke-linecap="round"/>
<path d="M208.849 117.788L186.2 115.802" stroke="#687388" stroke-width="1.4649" stroke-miterlimit="10" stroke-linecap="round"/>
<path d="M24.9449 101.657L36.8413 102.701" stroke="#7D2EFF" stroke-width="1.4649" stroke-miterlimit="10" stroke-linecap="round"/>
<path d="M36.5004 109.722H24.5923" stroke="#7D2EFF" stroke-width="1.4649" stroke-miterlimit="10" stroke-linecap="round"/>
<path d="M209.2 109.722H186.459" stroke="#687388" stroke-width="1.4649" stroke-miterlimit="10" stroke-linecap="round"/>
<path d="M36.8327 116.743L24.9449 117.786" stroke="#7D2EFF" stroke-width="1.4649" stroke-miterlimit="10" stroke-linecap="round"/>
<path d="M208.85 101.657L186.192 103.645" stroke="#687388" stroke-width="1.4649" stroke-miterlimit="10" stroke-linecap="round"/>
<path d="M207.797 93.6543L185.466 97.6014" stroke="#687388" stroke-width="1.4649" stroke-miterlimit="10" stroke-linecap="round"/>
<path d="M37.8049 123.701L25.9951 125.789" stroke="#7D2EFF" stroke-width="1.4649" stroke-miterlimit="10" stroke-linecap="round"/>
<path d="M206.053 85.7734L184.246 91.6308" stroke="#687388" stroke-width="1.4649" stroke-miterlimit="10" stroke-linecap="round"/>
<path d="M39.4187 130.532L27.7383 133.669" stroke="#7D2EFF" stroke-width="1.4649" stroke-miterlimit="10" stroke-linecap="round"/>
<path d="M203.633 78.0781L182.532 85.7762" stroke="#687388" stroke-width="1.4649" stroke-miterlimit="10" stroke-linecap="round"/>
<path d="M41.6608 137.17L30.1599 141.366" stroke="#7D2EFF" stroke-width="1.4649" stroke-miterlimit="10" stroke-linecap="round"/>
<path d="M44.5054 143.559L33.2407 148.823" stroke="#7D2EFF" stroke-width="1.4649" stroke-miterlimit="10" stroke-linecap="round"/>
<path d="M200.553 70.6201L180.361 80.0592" stroke="#687388" stroke-width="1.4649" stroke-miterlimit="10" stroke-linecap="round"/>
<path d="M196.833 63.46L177.706 74.5297" stroke="#687388" stroke-width="1.4649" stroke-miterlimit="10" stroke-linecap="round"/>
<path d="M192.506 56.6523L174.594 69.2242" stroke="#687388" stroke-width="1.4649" stroke-miterlimit="10" stroke-linecap="round"/>
<path d="M187.606 50.2471L171.062 64.1625" stroke="#687388" stroke-width="1.4649" stroke-miterlimit="10" stroke-linecap="round"/>
<path d="M182.166 44.2979L167.111 59.3886" stroke="#687388" stroke-width="1.4649" stroke-miterlimit="10" stroke-linecap="round"/>
<path d="M176.226 38.8438L162.742 54.9523" stroke="#687388" stroke-width="1.4649" stroke-miterlimit="10" stroke-linecap="round"/>
<path d="M169.84 33.9297L158.011 50.8622" stroke="#687388" stroke-width="1.4649" stroke-miterlimit="10" stroke-linecap="round"/>
<path d="M163.048 29.5928L152.934 47.151" stroke="#687388" stroke-width="1.4649" stroke-miterlimit="10" stroke-linecap="round"/>
<path d="M155.905 25.8662L147.531 43.8669" stroke="#687388" stroke-width="1.4649" stroke-miterlimit="10" stroke-linecap="round"/>
<path d="M148.465 22.7783L141.83 41.0511" stroke="#687388" stroke-width="1.4649" stroke-miterlimit="10" stroke-linecap="round"/>
<path d="M140.785 20.3506L135.878 38.708" stroke="#687388" stroke-width="1.4649" stroke-miterlimit="10" stroke-linecap="round"/>
<path d="M132.925 18.6016L129.712 36.8637" stroke="#687388" stroke-width="1.4649" stroke-miterlimit="10" stroke-linecap="round"/>
<path d="M124.94 17.5479L123.368 35.5646" stroke="#687388" stroke-width="1.4649" stroke-miterlimit="10" stroke-linecap="round"/>
<path d="M116.896 17.1963V34.8316" stroke="#687388" stroke-width="1.4649" stroke-miterlimit="10" stroke-linecap="round"/>
</g>
</g>
<defs>
<filter id="filter0_bd_16_868" x="-11.298" y="-14.298" width="251.23" height="251.963" filterUnits="userSpaceOnUse" color-interpolation-filters="sRGB">
<feFlood flood-opacity="0" result="BackgroundImageFix"/>
<feGaussianBlur in="BackgroundImage" stdDeviation="14.649"/>
<feComposite in2="SourceAlpha" operator="in" result="effect1_backgroundBlur_16_868"/>
<feColorMatrix in="SourceAlpha" type="matrix" values="0 0 0 0 0 0 0 0 0 0 0 0 0 0 0 0 0 0 127 0" result="hardAlpha"/>
<feOffset dy="2.9298"/>
<feGaussianBlur stdDeviation="8.7894"/>
<feComposite in2="hardAlpha" operator="out"/>
<feColorMatrix type="matrix" values="0 0 0 0 0 0 0 0 0 0 0 0 0 0 0 0 0 0 0.25 0"/>
<feBlend mode="normal" in2="effect1_backgroundBlur_16_868" result="effect2_dropShadow_16_868"/>
<feBlend mode="normal" in="SourceGraphic" in2="effect2_dropShadow_16_868" result="shape"/>
</filter>
<linearGradient id="paint0_linear_16_868" x1="58.1899" y1="-0.305853" x2="244.925" y2="21.9305" gradientUnits="userSpaceOnUse">
<stop stop-color="white" stop-opacity="0.6"/>
<stop offset="1" stop-color="white" stop-opacity="0.25"/>
</linearGradient>
<linearGradient id="paint1_linear_16_868" x1="84.1752" y1="94.5508" x2="162.249" y2="95.3262" gradientUnits="userSpaceOnUse">
<stop stop-color="#06F0FE"/>
<stop offset="1" stop-color="#025CF1"/>
</linearGradient>
<clipPath id="clip0_16_868">
<rect width="179.591" height="139.251" fill="white" transform="translate(24.5922 17.1963)"/>
</clipPath>
</defs>
</svg>
