<svg width="761" height="369" viewBox="0 0 761 369" fill="none" xmlns="http://www.w3.org/2000/svg">
<g filter="url(#filter0_bd_21_1332)">
<rect x="43" y="41" width="673" height="282" rx="3" fill="url(#paint0_linear_21_1332)" fill-opacity="0.1" shape-rendering="crispEdges"/>
<path d="M308.032 269.288C307.072 269.288 306.168 269.112 305.32 268.76C304.488 268.408 303.768 267.912 303.16 267.272C302.568 266.632 302.144 265.88 301.888 265.016L304.288 264.104C304.608 264.952 305.096 265.608 305.752 266.072C306.408 266.536 307.168 266.768 308.032 266.768C308.736 266.768 309.344 266.632 309.856 266.36C310.384 266.088 310.792 265.704 311.08 265.208C311.384 264.712 311.536 264.112 311.536 263.408C311.536 262.72 311.384 262.128 311.08 261.632C310.792 261.136 310.384 260.76 309.856 260.504C309.344 260.248 308.736 260.12 308.032 260.12C307.744 260.12 307.448 260.144 307.144 260.192C306.856 260.24 306.6 260.304 306.376 260.384L305.752 259.064L310.456 253.52H302.848V251.12H313.624V253.4L309.016 258.92L308.944 258.008C310.016 258.024 310.96 258.264 311.776 258.728C312.592 259.176 313.224 259.8 313.672 260.6C314.136 261.384 314.368 262.296 314.368 263.336C314.368 264.456 314.096 265.472 313.552 266.384C313.008 267.28 312.256 267.992 311.296 268.52C310.352 269.032 309.264 269.288 308.032 269.288ZM317.472 269L325.104 253.52H316.512V251.12H328.056V253.52L320.544 269H317.472ZM330.761 269L338.393 253.52H329.801V251.12H341.345V253.52L333.833 269H330.761ZM355.061 269.288C353.637 269.288 352.389 268.904 351.317 268.136C350.245 267.352 349.405 266.272 348.797 264.896C348.205 263.504 347.909 261.888 347.909 260.048C347.909 258.192 348.205 256.576 348.797 255.2C349.405 253.824 350.237 252.752 351.293 251.984C352.365 251.216 353.613 250.832 355.037 250.832C356.461 250.832 357.701 251.216 358.757 251.984C359.829 252.752 360.661 253.832 361.253 255.224C361.861 256.6 362.165 258.208 362.165 260.048C362.165 261.888 361.869 263.504 361.277 264.896C360.685 266.272 359.853 267.352 358.781 268.136C357.725 268.904 356.485 269.288 355.061 269.288ZM355.061 266.696C355.941 266.696 356.701 266.424 357.341 265.88C357.981 265.336 358.477 264.568 358.829 263.576C359.181 262.584 359.357 261.408 359.357 260.048C359.357 258.688 359.181 257.512 358.829 256.52C358.477 255.528 357.981 254.76 357.341 254.216C356.701 253.672 355.933 253.4 355.037 253.4C354.157 253.4 353.397 253.672 352.757 254.216C352.117 254.76 351.621 255.528 351.269 256.52C350.917 257.512 350.741 258.688 350.741 260.048C350.741 261.392 350.917 262.568 351.269 263.576C351.621 264.568 352.117 265.336 352.757 265.88C353.413 266.424 354.181 266.696 355.061 266.696ZM372.241 269.288C370.817 269.288 369.569 268.904 368.497 268.136C367.425 267.352 366.585 266.272 365.977 264.896C365.385 263.504 365.089 261.888 365.089 260.048C365.089 258.192 365.385 256.576 365.977 255.2C366.585 253.824 367.417 252.752 368.473 251.984C369.545 251.216 370.793 250.832 372.217 250.832C373.641 250.832 374.881 251.216 375.937 251.984C377.009 252.752 377.841 253.832 378.433 255.224C379.041 256.6 379.345 258.208 379.345 260.048C379.345 261.888 379.049 263.504 378.457 264.896C377.865 266.272 377.033 267.352 375.961 268.136C374.905 268.904 373.665 269.288 372.241 269.288ZM372.241 266.696C373.121 266.696 373.881 266.424 374.521 265.88C375.161 265.336 375.657 264.568 376.009 263.576C376.361 262.584 376.537 261.408 376.537 260.048C376.537 258.688 376.361 257.512 376.009 256.52C375.657 255.528 375.161 254.76 374.521 254.216C373.881 253.672 373.113 253.4 372.217 253.4C371.337 253.4 370.577 253.672 369.937 254.216C369.297 254.76 368.801 255.528 368.449 256.52C368.097 257.512 367.921 258.688 367.921 260.048C367.921 261.392 368.097 262.568 368.449 263.576C368.801 264.568 369.297 265.336 369.937 265.88C370.593 266.424 371.361 266.696 372.241 266.696ZM389.421 269.288C387.997 269.288 386.749 268.904 385.677 268.136C384.605 267.352 383.765 266.272 383.157 264.896C382.565 263.504 382.269 261.888 382.269 260.048C382.269 258.192 382.565 256.576 383.157 255.2C383.765 253.824 384.597 252.752 385.653 251.984C386.725 251.216 387.973 250.832 389.397 250.832C390.821 250.832 392.061 251.216 393.117 251.984C394.189 252.752 395.021 253.832 395.613 255.224C396.221 256.6 396.525 258.208 396.525 260.048C396.525 261.888 396.229 263.504 395.637 264.896C395.045 266.272 394.213 267.352 393.141 268.136C392.085 268.904 390.845 269.288 389.421 269.288ZM389.421 266.696C390.301 266.696 391.061 266.424 391.701 265.88C392.341 265.336 392.837 264.568 393.189 263.576C393.541 262.584 393.717 261.408 393.717 260.048C393.717 258.688 393.541 257.512 393.189 256.52C392.837 255.528 392.341 254.76 391.701 254.216C391.061 253.672 390.293 253.4 389.397 253.4C388.517 253.4 387.757 253.672 387.117 254.216C386.477 254.76 385.981 255.528 385.629 256.52C385.277 257.512 385.101 258.688 385.101 260.048C385.101 261.392 385.277 262.568 385.629 263.576C385.981 264.568 386.477 265.336 387.117 265.88C387.773 266.424 388.541 266.696 389.421 266.696ZM412.404 269.288C411.14 269.288 409.964 269.056 408.876 268.592C407.804 268.128 406.86 267.488 406.044 266.672C405.244 265.84 404.62 264.864 404.172 263.744C403.724 262.624 403.5 261.392 403.5 260.048C403.5 258.72 403.716 257.496 404.148 256.376C404.596 255.24 405.22 254.264 406.02 253.448C406.82 252.616 407.756 251.976 408.828 251.528C409.9 251.064 411.076 250.832 412.356 250.832C413.62 250.832 414.748 251.048 415.74 251.48C416.748 251.912 417.596 252.48 418.284 253.184C418.972 253.872 419.468 254.624 419.772 255.44L417.252 256.664C416.884 255.688 416.276 254.904 415.428 254.312C414.58 253.704 413.556 253.4 412.356 253.4C411.172 253.4 410.124 253.68 409.212 254.24C408.3 254.8 407.588 255.576 407.076 256.568C406.58 257.56 406.332 258.72 406.332 260.048C406.332 261.376 406.588 262.544 407.1 263.552C407.628 264.544 408.348 265.32 409.26 265.88C410.172 266.424 411.22 266.696 412.404 266.696C413.396 266.696 414.3 266.496 415.116 266.096C415.948 265.68 416.612 265.104 417.108 264.368C417.604 263.616 417.852 262.744 417.852 261.752V260.528L419.124 261.68H412.356V259.28H420.66V260.96C420.66 262.272 420.436 263.448 419.988 264.488C419.54 265.512 418.932 266.384 418.164 267.104C417.396 267.824 416.516 268.368 415.524 268.736C414.532 269.104 413.492 269.288 412.404 269.288ZM421.967 269L427.799 259.952L422.063 251.12H425.279L430.079 258.512H428.711L433.463 251.12H436.679L430.967 259.952L436.799 269H433.583L428.711 261.416L430.079 261.44L425.159 269H421.967ZM438.903 269V251.12H444.759C446.615 251.12 448.223 251.496 449.583 252.248C450.959 252.984 452.023 254.024 452.775 255.368C453.527 256.712 453.903 258.272 453.903 260.048C453.903 261.808 453.527 263.368 452.775 264.728C452.023 266.072 450.959 267.12 449.583 267.872C448.223 268.624 446.615 269 444.759 269H438.903ZM441.735 266.48H444.807C446.071 266.48 447.167 266.216 448.095 265.688C449.039 265.16 449.767 264.416 450.279 263.456C450.791 262.496 451.047 261.36 451.047 260.048C451.047 258.736 450.783 257.608 450.255 256.664C449.743 255.704 449.023 254.96 448.095 254.432C447.167 253.904 446.071 253.64 444.807 253.64H441.735V266.48Z" fill="#10DBFE"/>
<g filter="url(#filter1_bd_21_1332)">
<path d="M78 231H657.919L677 243.093V288H94.9957L78 277.298V231Z" stroke="url(#paint1_linear_21_1332)" stroke-width="2" shape-rendering="crispEdges"/>
</g>
<path d="M78 165V183" stroke="#05F0FD" stroke-width="2"/>
<path d="M86 165V183" stroke="#05F0FD" stroke-width="2"/>
<g filter="url(#filter2_d_21_1332)">
<path d="M96 161V186" stroke="#05F0FD" stroke-width="9"/>
</g>
<path d="M107 165V183" stroke="#5B5B5B" stroke-width="2"/>
<path d="M115 165V183" stroke="#5B5B5B" stroke-width="2"/>
<path d="M123 165V183" stroke="#5B5B5B" stroke-width="2"/>
<path d="M131 165V183" stroke="#5B5B5B" stroke-width="2"/>
<path d="M139 165V183" stroke="#5B5B5B" stroke-width="2"/>
<path d="M147 165V183" stroke="#5B5B5B" stroke-width="2"/>
<path d="M155 165V183" stroke="#5B5B5B" stroke-width="2"/>
<path d="M163 165V183" stroke="#5B5B5B" stroke-width="2"/>
<path d="M171 165V183" stroke="#5B5B5B" stroke-width="2"/>
<path d="M179 165V183" stroke="#5B5B5B" stroke-width="2"/>
<path d="M187 165V183" stroke="#5B5B5B" stroke-width="2"/>
<path d="M195 165V183" stroke="#5B5B5B" stroke-width="2"/>
<path d="M203 165V183" stroke="#5B5B5B" stroke-width="2"/>
<path d="M211 165V183" stroke="#5B5B5B" stroke-width="2"/>
<path d="M219 165V183" stroke="#5B5B5B" stroke-width="2"/>
<path d="M227 165V183" stroke="#5B5B5B" stroke-width="2"/>
<path d="M235 165V183" stroke="#5B5B5B" stroke-width="2"/>
<path d="M243 165V183" stroke="#5B5B5B" stroke-width="2"/>
<path d="M251 165V183" stroke="#5B5B5B" stroke-width="2"/>
<path d="M259 165V183" stroke="#5B5B5B" stroke-width="2"/>
<path d="M267 165V183" stroke="#5B5B5B" stroke-width="2"/>
<path d="M275 165V183" stroke="#5B5B5B" stroke-width="2"/>
<path d="M283 165V183" stroke="#5B5B5B" stroke-width="2"/>
<path d="M291 165V183" stroke="#5B5B5B" stroke-width="2"/>
<path d="M299 165V183" stroke="#5B5B5B" stroke-width="2"/>
<path d="M307 165V183" stroke="#5B5B5B" stroke-width="2"/>
<path d="M315 165V183" stroke="#5B5B5B" stroke-width="2"/>
<path d="M323 165V183" stroke="#5B5B5B" stroke-width="2"/>
<path d="M331 165V183" stroke="#5B5B5B" stroke-width="2"/>
<path d="M339 165V183" stroke="#5B5B5B" stroke-width="2"/>
<path d="M347 165V183" stroke="#5B5B5B" stroke-width="2"/>
<path d="M355 165V183" stroke="#5B5B5B" stroke-width="2"/>
<path d="M363 165V183" stroke="#5B5B5B" stroke-width="2"/>
<path d="M82.424 149.192C81.6667 149.192 80.9787 149.048 80.36 148.76C79.7413 148.472 79.2187 148.088 78.792 147.608C78.3653 147.117 78.0613 146.579 77.88 145.992L79.032 145.56C79.3093 146.371 79.7413 146.989 80.328 147.416C80.9147 147.832 81.6133 148.04 82.424 148.04C82.936 148.04 83.384 147.96 83.768 147.8C84.1627 147.629 84.4667 147.395 84.68 147.096C84.8933 146.797 85 146.451 85 146.056C85 145.469 84.84 145.016 84.52 144.696C84.2 144.376 83.7413 144.131 83.144 143.96L81 143.32C80.1573 143.075 79.5067 142.664 79.048 142.088C78.6 141.512 78.376 140.856 78.376 140.12C78.376 139.491 78.5307 138.936 78.84 138.456C79.1493 137.965 79.5707 137.581 80.104 137.304C80.648 137.027 81.2613 136.888 81.944 136.888C82.6587 136.888 83.2987 137.021 83.864 137.288C84.44 137.544 84.9253 137.885 85.32 138.312C85.7147 138.739 85.9973 139.213 86.168 139.736L85.048 140.184C84.792 139.48 84.392 138.947 83.848 138.584C83.3147 138.221 82.6853 138.04 81.96 138.04C81.5013 138.04 81.096 138.12 80.744 138.28C80.4027 138.44 80.136 138.669 79.944 138.968C79.752 139.267 79.656 139.619 79.656 140.024C79.656 140.515 79.8107 140.957 80.12 141.352C80.4293 141.736 80.904 142.024 81.544 142.216L83.432 142.776C84.3707 143.053 85.08 143.453 85.56 143.976C86.04 144.499 86.28 145.155 86.28 145.944C86.28 146.584 86.1147 147.149 85.784 147.64C85.464 148.12 85.0107 148.499 84.424 148.776C83.848 149.053 83.1813 149.192 82.424 149.192ZM91.8558 149.096C91.0878 149.096 90.4958 148.872 90.0798 148.424C89.6638 147.976 89.4557 147.336 89.4557 146.504V141.624H87.8717V140.424H88.2718C88.6344 140.424 88.9224 140.307 89.1358 140.072C89.3491 139.827 89.4557 139.523 89.4557 139.16V138.44H90.6558V140.424H92.5438V141.624H90.6558V146.504C90.6558 146.792 90.6984 147.048 90.7838 147.272C90.8691 147.485 91.0131 147.656 91.2158 147.784C91.4291 147.912 91.7118 147.976 92.0638 147.976C92.1491 147.976 92.2504 147.971 92.3678 147.96C92.4851 147.949 92.5864 147.939 92.6718 147.928V149C92.5438 149.032 92.3998 149.053 92.2398 149.064C92.0798 149.085 91.9518 149.096 91.8558 149.096ZM98.4824 149.192C97.6717 149.192 96.9357 149 96.2744 148.616C95.613 148.221 95.085 147.688 94.6904 147.016C94.3064 146.333 94.1144 145.56 94.1144 144.696C94.1144 143.843 94.3064 143.08 94.6904 142.408C95.0744 141.736 95.5917 141.208 96.2424 140.824C96.9037 140.429 97.6504 140.232 98.4824 140.232C99.3144 140.232 100.056 140.424 100.706 140.808C101.368 141.192 101.885 141.72 102.258 142.392C102.642 143.064 102.834 143.832 102.834 144.696C102.834 145.571 102.637 146.349 102.242 147.032C101.848 147.704 101.32 148.232 100.658 148.616C100.008 149 99.2824 149.192 98.4824 149.192ZM98.4824 147.992C99.0584 147.992 99.5757 147.848 100.034 147.56C100.504 147.272 100.872 146.877 101.138 146.376C101.416 145.875 101.554 145.315 101.554 144.696C101.554 144.077 101.416 143.523 101.138 143.032C100.872 142.541 100.504 142.152 100.034 141.864C99.5757 141.576 99.0584 141.432 98.4824 141.432C97.9064 141.432 97.3837 141.576 96.9144 141.864C96.4557 142.152 96.0877 142.541 95.8104 143.032C95.533 143.523 95.3944 144.077 95.3944 144.696C95.3944 145.315 95.533 145.875 95.8104 146.376C96.0877 146.877 96.4557 147.272 96.9144 147.56C97.3837 147.848 97.9064 147.992 98.4824 147.992ZM104.951 149V140.424H106.151V141.832L105.991 141.624C106.193 141.219 106.497 140.899 106.903 140.664C107.319 140.429 107.82 140.312 108.407 140.312H108.951V141.512H108.199C107.58 141.512 107.084 141.704 106.711 142.088C106.337 142.472 106.151 143.016 106.151 143.72V149H104.951ZM112.837 149.192C112.293 149.192 111.808 149.091 111.381 148.888C110.954 148.675 110.618 148.387 110.373 148.024C110.128 147.661 110.005 147.245 110.005 146.776C110.005 146.328 110.101 145.923 110.293 145.56C110.485 145.187 110.784 144.872 111.189 144.616C111.594 144.36 112.112 144.179 112.741 144.072L116.101 143.512V144.6L113.029 145.112C112.41 145.219 111.962 145.416 111.685 145.704C111.418 145.992 111.285 146.333 111.285 146.728C111.285 147.112 111.434 147.437 111.733 147.704C112.042 147.971 112.437 148.104 112.917 148.104C113.504 148.104 114.016 147.981 114.453 147.736C114.89 147.48 115.232 147.139 115.477 146.712C115.722 146.285 115.845 145.811 115.845 145.288V143.112C115.845 142.6 115.658 142.184 115.285 141.864C114.912 141.544 114.426 141.384 113.829 141.384C113.306 141.384 112.848 141.517 112.453 141.784C112.058 142.04 111.765 142.376 111.573 142.792L110.485 142.2C110.645 141.837 110.896 141.507 111.237 141.208C111.589 140.909 111.989 140.675 112.437 140.504C112.885 140.323 113.349 140.232 113.829 140.232C114.458 140.232 115.013 140.355 115.493 140.6C115.984 140.845 116.362 141.187 116.629 141.624C116.906 142.051 117.045 142.547 117.045 143.112V149H115.845V147.288L116.021 147.464C115.872 147.784 115.637 148.077 115.317 148.344C115.008 148.6 114.64 148.808 114.213 148.968C113.797 149.117 113.338 149.192 112.837 149.192ZM123.577 152.52C122.991 152.52 122.447 152.429 121.945 152.248C121.455 152.067 121.028 151.816 120.665 151.496C120.313 151.187 120.041 150.824 119.849 150.408L120.953 149.816C121.124 150.221 121.428 150.573 121.865 150.872C122.303 151.171 122.863 151.32 123.545 151.32C124.068 151.32 124.548 151.219 124.985 151.016C125.423 150.813 125.775 150.515 126.041 150.12C126.308 149.725 126.441 149.24 126.441 148.664V146.76L126.633 146.936C126.335 147.555 125.892 148.035 125.305 148.376C124.719 148.707 124.079 148.872 123.385 148.872C122.585 148.872 121.865 148.68 121.225 148.296C120.585 147.912 120.079 147.395 119.705 146.744C119.343 146.083 119.161 145.352 119.161 144.552C119.161 143.741 119.343 143.011 119.705 142.36C120.079 141.709 120.58 141.192 121.209 140.808C121.849 140.424 122.575 140.232 123.385 140.232C124.079 140.232 124.708 140.392 125.273 140.712C125.849 141.032 126.303 141.464 126.633 142.008L126.441 142.344V140.424H127.641V148.664C127.641 149.4 127.465 150.056 127.113 150.632C126.772 151.219 126.292 151.677 125.673 152.008C125.065 152.349 124.367 152.52 123.577 152.52ZM123.449 147.672C124.004 147.672 124.505 147.533 124.953 147.256C125.401 146.968 125.759 146.589 126.025 146.12C126.303 145.64 126.441 145.117 126.441 144.552C126.441 143.987 126.303 143.469 126.025 143C125.759 142.52 125.401 142.141 124.953 141.864C124.505 141.576 124.004 141.432 123.449 141.432C122.884 141.432 122.372 141.576 121.913 141.864C121.455 142.141 121.092 142.515 120.825 142.984C120.569 143.453 120.441 143.976 120.441 144.552C120.441 145.117 120.569 145.64 120.825 146.12C121.092 146.589 121.449 146.968 121.897 147.256C122.356 147.533 122.873 147.672 123.449 147.672ZM134.011 149.192C133.211 149.192 132.486 149 131.835 148.616C131.195 148.221 130.688 147.683 130.315 147C129.942 146.317 129.755 145.544 129.755 144.68C129.755 143.816 129.936 143.053 130.299 142.392C130.662 141.72 131.152 141.192 131.771 140.808C132.4 140.424 133.104 140.232 133.883 140.232C134.502 140.232 135.051 140.349 135.531 140.584C136.022 140.808 136.438 141.117 136.779 141.512C137.12 141.896 137.382 142.333 137.563 142.824C137.744 143.304 137.835 143.8 137.835 144.312C137.835 144.419 137.83 144.541 137.819 144.68C137.808 144.808 137.792 144.941 137.771 145.08H130.523V143.96H137.083L136.507 144.44C136.603 143.853 136.534 143.331 136.299 142.872C136.075 142.403 135.75 142.035 135.323 141.768C134.896 141.491 134.416 141.352 133.883 141.352C133.35 141.352 132.854 141.491 132.395 141.768C131.947 142.045 131.595 142.435 131.339 142.936C131.083 143.427 130.982 144.013 131.035 144.696C130.982 145.379 131.088 145.976 131.355 146.488C131.632 146.989 132.006 147.379 132.475 147.656C132.955 147.933 133.467 148.072 134.011 148.072C134.64 148.072 135.168 147.923 135.595 147.624C136.022 147.325 136.368 146.952 136.635 146.504L137.659 147.048C137.488 147.432 137.227 147.789 136.875 148.12C136.523 148.44 136.102 148.701 135.611 148.904C135.131 149.096 134.598 149.192 134.011 149.192Z" fill="#F6F8FC"/>
<path d="M320.301 152.192C319.682 152.192 319.106 152.085 318.573 151.872C318.05 151.659 317.591 151.355 317.197 150.96C316.802 150.565 316.503 150.096 316.301 149.552L317.277 149.072C317.522 149.691 317.922 150.181 318.477 150.544C319.042 150.896 319.65 151.072 320.301 151.072C320.823 151.072 321.287 150.949 321.693 150.704C322.109 150.459 322.434 150.128 322.669 149.712C322.903 149.285 323.021 148.811 323.021 148.288C323.021 147.744 322.898 147.264 322.653 146.848C322.418 146.432 322.098 146.107 321.693 145.872C321.287 145.627 320.829 145.504 320.317 145.504C319.794 145.504 319.309 145.627 318.861 145.872C318.423 146.107 318.103 146.395 317.901 146.736L316.893 146.544L317.789 140.08H323.821V141.2H318.253L318.749 140.768L318.029 145.856L317.533 145.632C317.906 145.173 318.343 144.848 318.845 144.656C319.346 144.453 319.858 144.352 320.381 144.352C321.149 144.352 321.826 144.533 322.413 144.896C322.999 145.248 323.458 145.723 323.789 146.32C324.13 146.907 324.301 147.563 324.301 148.288C324.301 149.024 324.125 149.691 323.773 150.288C323.431 150.875 322.957 151.339 322.349 151.68C321.751 152.021 321.069 152.192 320.301 152.192ZM331.2 152.192C330.261 152.192 329.435 151.936 328.72 151.424C328.016 150.901 327.467 150.181 327.072 149.264C326.677 148.336 326.48 147.259 326.48 146.032C326.48 144.805 326.677 143.733 327.072 142.816C327.467 141.888 328.016 141.168 328.72 140.656C329.424 140.144 330.245 139.888 331.184 139.888C332.123 139.888 332.944 140.144 333.648 140.656C334.352 141.168 334.901 141.888 335.296 142.816C335.691 143.733 335.888 144.805 335.888 146.032C335.888 147.259 335.691 148.336 335.296 149.264C334.912 150.192 334.368 150.912 333.664 151.424C332.96 151.936 332.139 152.192 331.2 152.192ZM331.2 150.992C331.883 150.992 332.48 150.784 332.992 150.368C333.504 149.952 333.904 149.376 334.192 148.64C334.48 147.893 334.624 147.024 334.624 146.032C334.624 145.04 334.48 144.176 334.192 143.44C333.904 142.693 333.504 142.117 332.992 141.712C332.48 141.296 331.877 141.088 331.184 141.088C330.501 141.088 329.904 141.296 329.392 141.712C328.88 142.117 328.48 142.693 328.192 143.44C327.904 144.176 327.76 145.04 327.76 146.032C327.76 147.013 327.904 147.877 328.192 148.624C328.48 149.371 328.88 149.952 329.392 150.368C329.915 150.784 330.517 150.992 331.2 150.992ZM346.614 152.192C345.771 152.192 344.998 152.043 344.294 151.744C343.59 151.435 342.976 151.008 342.454 150.464C341.942 149.909 341.542 149.259 341.254 148.512C340.966 147.765 340.822 146.944 340.822 146.048C340.822 145.152 340.966 144.331 341.254 143.584C341.542 142.837 341.942 142.187 342.454 141.632C342.976 141.077 343.59 140.651 344.294 140.352C344.998 140.043 345.771 139.888 346.614 139.888C347.424 139.888 348.15 140.032 348.79 140.32C349.44 140.608 349.984 140.981 350.422 141.44C350.87 141.888 351.19 142.363 351.382 142.864L350.23 143.424C349.931 142.699 349.472 142.128 348.854 141.712C348.235 141.296 347.488 141.088 346.614 141.088C345.739 141.088 344.96 141.296 344.278 141.712C343.595 142.128 343.062 142.709 342.678 143.456C342.294 144.192 342.102 145.056 342.102 146.048C342.102 147.029 342.294 147.893 342.678 148.64C343.062 149.387 343.595 149.968 344.278 150.384C344.96 150.789 345.739 150.992 346.614 150.992C347.392 150.992 348.091 150.821 348.71 150.48C349.339 150.139 349.835 149.675 350.198 149.088C350.56 148.491 350.742 147.808 350.742 147.04V146.384L351.318 146.96H346.614V145.84H352.022V146.832C352.022 147.611 351.883 148.331 351.606 148.992C351.328 149.643 350.944 150.208 350.454 150.688C349.963 151.168 349.387 151.541 348.726 151.808C348.075 152.064 347.371 152.192 346.614 152.192ZM354.314 152V140.08H359.322C359.994 140.08 360.576 140.208 361.066 140.464C361.568 140.709 361.952 141.056 362.218 141.504C362.496 141.952 362.634 142.475 362.634 143.072C362.634 143.691 362.48 144.24 362.17 144.72C361.872 145.189 361.44 145.547 360.874 145.792L360.858 145.408C361.328 145.579 361.728 145.819 362.058 146.128C362.4 146.437 362.661 146.8 362.842 147.216C363.024 147.621 363.114 148.059 363.114 148.528C363.114 149.595 362.773 150.443 362.09 151.072C361.418 151.691 360.501 152 359.338 152H354.314ZM355.594 150.8H359.338C360.096 150.8 360.698 150.603 361.146 150.208C361.605 149.803 361.834 149.248 361.834 148.544C361.834 147.851 361.605 147.301 361.146 146.896C360.698 146.48 360.096 146.272 359.338 146.272H355.594V150.8ZM355.594 145.12H359.226C359.866 145.12 360.378 144.933 360.762 144.56C361.157 144.187 361.354 143.707 361.354 143.12C361.354 142.523 361.157 142.069 360.762 141.76C360.378 141.44 359.866 141.28 359.226 141.28H355.594V145.12Z" fill="#D5D5D5"/>
<path d="M392 165V183" stroke="#05F0FD" stroke-width="2"/>
<path d="M400 165V183" stroke="#05F0FD" stroke-width="2"/>
<path d="M408 165V183" stroke="#05F0FD" stroke-width="2"/>
<path d="M416 165V183" stroke="#05F0FD" stroke-width="2"/>
<path d="M424 165V183" stroke="#05F0FD" stroke-width="2"/>
<path d="M432 165V183" stroke="#05F0FD" stroke-width="2"/>
<path d="M440 165V183" stroke="#05F0FD" stroke-width="2"/>
<path d="M448 165V183" stroke="#05F0FD" stroke-width="2"/>
<path d="M456 165V183" stroke="#05F0FD" stroke-width="2"/>
<path d="M464 165V183" stroke="#05F0FD" stroke-width="2"/>
<path d="M472 165V183" stroke="#05F0FD" stroke-width="2"/>
<path d="M480 165V183" stroke="#05F0FD" stroke-width="2"/>
<path d="M488 165V183" stroke="#05F0FD" stroke-width="2"/>
<path d="M496 165V183" stroke="#05F0FD" stroke-width="2"/>
<path d="M504 165V183" stroke="#05F0FD" stroke-width="2"/>
<path d="M512 165V183" stroke="#05F0FD" stroke-width="2"/>
<path d="M520 165V183" stroke="#05F0FD" stroke-width="2"/>
<g filter="url(#filter3_d_21_1332)">
<path d="M528 162V187" stroke="#05F0FD" stroke-width="9"/>
</g>
<path d="M536 165V183" stroke="#5B5B5B" stroke-width="2"/>
<path d="M544 165V183" stroke="#5B5B5B" stroke-width="2"/>
<path d="M552 165V183" stroke="#5B5B5B" stroke-width="2"/>
<path d="M560 165V183" stroke="#5B5B5B" stroke-width="2"/>
<path d="M568 165V183" stroke="#5B5B5B" stroke-width="2"/>
<path d="M576 165V183" stroke="#5B5B5B" stroke-width="2"/>
<path d="M584 165V183" stroke="#5B5B5B" stroke-width="2"/>
<path d="M592 165V183" stroke="#5B5B5B" stroke-width="2"/>
<path d="M600 165V183" stroke="#5B5B5B" stroke-width="2"/>
<path d="M608 165V183" stroke="#5B5B5B" stroke-width="2"/>
<path d="M616 165V183" stroke="#5B5B5B" stroke-width="2"/>
<path d="M624 165V183" stroke="#5B5B5B" stroke-width="2"/>
<path d="M632 165V183" stroke="#5B5B5B" stroke-width="2"/>
<path d="M640 165V183" stroke="#5B5B5B" stroke-width="2"/>
<path d="M648 165V183" stroke="#5B5B5B" stroke-width="2"/>
<path d="M656 165V183" stroke="#5B5B5B" stroke-width="2"/>
<path d="M664 165V183" stroke="#5B5B5B" stroke-width="2"/>
<path d="M672 165V183" stroke="#5B5B5B" stroke-width="2"/>
<path d="M395.424 149.192C394.667 149.192 393.979 149.048 393.36 148.76C392.741 148.472 392.219 148.088 391.792 147.608C391.365 147.117 391.061 146.579 390.88 145.992L392.032 145.56C392.309 146.371 392.741 146.989 393.328 147.416C393.915 147.832 394.613 148.04 395.424 148.04C395.936 148.04 396.384 147.96 396.768 147.8C397.163 147.629 397.467 147.395 397.68 147.096C397.893 146.797 398 146.451 398 146.056C398 145.469 397.84 145.016 397.52 144.696C397.2 144.376 396.741 144.131 396.144 143.96L394 143.32C393.157 143.075 392.507 142.664 392.048 142.088C391.6 141.512 391.376 140.856 391.376 140.12C391.376 139.491 391.531 138.936 391.84 138.456C392.149 137.965 392.571 137.581 393.104 137.304C393.648 137.027 394.261 136.888 394.944 136.888C395.659 136.888 396.299 137.021 396.864 137.288C397.44 137.544 397.925 137.885 398.32 138.312C398.715 138.739 398.997 139.213 399.168 139.736L398.048 140.184C397.792 139.48 397.392 138.947 396.848 138.584C396.315 138.221 395.685 138.04 394.96 138.04C394.501 138.04 394.096 138.12 393.744 138.28C393.403 138.44 393.136 138.669 392.944 138.968C392.752 139.267 392.656 139.619 392.656 140.024C392.656 140.515 392.811 140.957 393.12 141.352C393.429 141.736 393.904 142.024 394.544 142.216L396.432 142.776C397.371 143.053 398.08 143.453 398.56 143.976C399.04 144.499 399.28 145.155 399.28 145.944C399.28 146.584 399.115 147.149 398.784 147.64C398.464 148.12 398.011 148.499 397.424 148.776C396.848 149.053 396.181 149.192 395.424 149.192ZM401.576 152.2V140.424H402.776V142.344L402.584 142.008C402.925 141.464 403.378 141.032 403.944 140.712C404.52 140.392 405.176 140.232 405.912 140.232C406.722 140.232 407.442 140.429 408.072 140.824C408.712 141.208 409.213 141.736 409.576 142.408C409.949 143.08 410.136 143.848 410.136 144.712C410.136 145.565 409.949 146.333 409.576 147.016C409.213 147.688 408.712 148.221 408.072 148.616C407.442 149 406.722 149.192 405.912 149.192C405.176 149.192 404.509 149.027 403.912 148.696C403.325 148.355 402.882 147.875 402.584 147.256L402.776 147.08V152.2H401.576ZM405.848 147.992C406.424 147.992 406.936 147.848 407.384 147.56C407.842 147.272 408.2 146.883 408.456 146.392C408.722 145.891 408.856 145.331 408.856 144.712C408.856 144.083 408.722 143.523 408.456 143.032C408.2 142.541 407.842 142.152 407.384 141.864C406.936 141.576 406.424 141.432 405.848 141.432C405.272 141.432 404.749 141.576 404.28 141.864C403.821 142.152 403.453 142.547 403.176 143.048C402.909 143.539 402.776 144.093 402.776 144.712C402.776 145.331 402.909 145.891 403.176 146.392C403.453 146.883 403.821 147.272 404.28 147.56C404.749 147.848 405.272 147.992 405.848 147.992ZM416.152 149.192C415.352 149.192 414.626 149 413.976 148.616C413.336 148.221 412.829 147.683 412.456 147C412.082 146.317 411.896 145.544 411.896 144.68C411.896 143.816 412.077 143.053 412.44 142.392C412.802 141.72 413.293 141.192 413.912 140.808C414.541 140.424 415.245 140.232 416.024 140.232C416.642 140.232 417.192 140.349 417.672 140.584C418.162 140.808 418.578 141.117 418.92 141.512C419.261 141.896 419.522 142.333 419.704 142.824C419.885 143.304 419.976 143.8 419.976 144.312C419.976 144.419 419.97 144.541 419.96 144.68C419.949 144.808 419.933 144.941 419.912 145.08H412.664V143.96H419.224L418.648 144.44C418.744 143.853 418.674 143.331 418.44 142.872C418.216 142.403 417.89 142.035 417.464 141.768C417.037 141.491 416.557 141.352 416.024 141.352C415.49 141.352 414.994 141.491 414.536 141.768C414.088 142.045 413.736 142.435 413.48 142.936C413.224 143.427 413.122 144.013 413.176 144.696C413.122 145.379 413.229 145.976 413.496 146.488C413.773 146.989 414.146 147.379 414.616 147.656C415.096 147.933 415.608 148.072 416.152 148.072C416.781 148.072 417.309 147.923 417.736 147.624C418.162 147.325 418.509 146.952 418.776 146.504L419.8 147.048C419.629 147.432 419.368 147.789 419.016 148.12C418.664 148.44 418.242 148.701 417.752 148.904C417.272 149.096 416.738 149.192 416.152 149.192ZM425.995 149.192C425.195 149.192 424.47 149 423.819 148.616C423.179 148.221 422.673 147.683 422.299 147C421.926 146.317 421.739 145.544 421.739 144.68C421.739 143.816 421.921 143.053 422.283 142.392C422.646 141.72 423.137 141.192 423.755 140.808C424.385 140.424 425.089 140.232 425.867 140.232C426.486 140.232 427.035 140.349 427.515 140.584C428.006 140.808 428.422 141.117 428.763 141.512C429.105 141.896 429.366 142.333 429.547 142.824C429.729 143.304 429.819 143.8 429.819 144.312C429.819 144.419 429.814 144.541 429.803 144.68C429.793 144.808 429.777 144.941 429.755 145.08H422.507V143.96H429.067L428.491 144.44C428.587 143.853 428.518 143.331 428.283 142.872C428.059 142.403 427.734 142.035 427.307 141.768C426.881 141.491 426.401 141.352 425.867 141.352C425.334 141.352 424.838 141.491 424.379 141.768C423.931 142.045 423.579 142.435 423.323 142.936C423.067 143.427 422.966 144.013 423.019 144.696C422.966 145.379 423.073 145.976 423.339 146.488C423.617 146.989 423.99 147.379 424.459 147.656C424.939 147.933 425.451 148.072 425.995 148.072C426.625 148.072 427.153 147.923 427.579 147.624C428.006 147.325 428.353 146.952 428.619 146.504L429.643 147.048C429.473 147.432 429.211 147.789 428.859 148.12C428.507 148.44 428.086 148.701 427.595 148.904C427.115 149.096 426.582 149.192 425.995 149.192ZM435.807 149.192C435.007 149.192 434.287 149 433.647 148.616C433.007 148.221 432.5 147.688 432.127 147.016C431.764 146.333 431.583 145.565 431.583 144.712C431.583 143.848 431.764 143.08 432.127 142.408C432.5 141.736 433.002 141.208 433.631 140.824C434.271 140.429 434.996 140.232 435.807 140.232C436.543 140.232 437.199 140.392 437.775 140.712C438.351 141.032 438.804 141.464 439.135 142.008L438.943 142.344V136.888H440.143V149H438.943V147.08L439.135 147.256C438.836 147.875 438.388 148.355 437.791 148.696C437.204 149.027 436.543 149.192 435.807 149.192ZM435.871 147.992C436.447 147.992 436.964 147.848 437.423 147.56C437.892 147.272 438.26 146.883 438.527 146.392C438.804 145.891 438.943 145.331 438.943 144.712C438.943 144.093 438.804 143.539 438.527 143.048C438.26 142.547 437.892 142.152 437.423 141.864C436.964 141.576 436.447 141.432 435.871 141.432C435.306 141.432 434.794 141.576 434.335 141.864C433.876 142.152 433.514 142.541 433.247 143.032C432.991 143.523 432.863 144.083 432.863 144.712C432.863 145.331 432.991 145.891 433.247 146.392C433.514 146.883 433.871 147.272 434.319 147.56C434.778 147.848 435.295 147.992 435.871 147.992Z" fill="#F6F8FC"/>
<path d="M619.488 152.192C618.87 152.192 618.294 152.085 617.76 151.872C617.238 151.659 616.779 151.355 616.384 150.96C615.99 150.565 615.691 150.096 615.488 149.552L616.464 149.072C616.71 149.691 617.11 150.181 617.664 150.544C618.23 150.896 618.838 151.072 619.488 151.072C620.011 151.072 620.475 150.949 620.88 150.704C621.296 150.459 621.622 150.128 621.856 149.712C622.091 149.285 622.208 148.811 622.208 148.288C622.208 147.744 622.086 147.264 621.84 146.848C621.606 146.432 621.286 146.107 620.88 145.872C620.475 145.627 620.016 145.504 619.504 145.504C618.982 145.504 618.496 145.627 618.048 145.872C617.611 146.107 617.291 146.395 617.088 146.736L616.08 146.544L616.976 140.08H623.008V141.2H617.44L617.936 140.768L617.216 145.856L616.72 145.632C617.094 145.173 617.531 144.848 618.032 144.656C618.534 144.453 619.046 144.352 619.568 144.352C620.336 144.352 621.014 144.533 621.6 144.896C622.187 145.248 622.646 145.723 622.976 146.32C623.318 146.907 623.488 147.563 623.488 148.288C623.488 149.024 623.312 149.691 622.96 150.288C622.619 150.875 622.144 151.339 621.536 151.68C620.939 152.021 620.256 152.192 619.488 152.192ZM630.388 152.192C629.449 152.192 628.622 151.936 627.908 151.424C627.204 150.901 626.654 150.181 626.26 149.264C625.865 148.336 625.668 147.259 625.668 146.032C625.668 144.805 625.865 143.733 626.26 142.816C626.654 141.888 627.204 141.168 627.908 140.656C628.612 140.144 629.433 139.888 630.372 139.888C631.31 139.888 632.132 140.144 632.836 140.656C633.54 141.168 634.089 141.888 634.484 142.816C634.878 143.733 635.076 144.805 635.076 146.032C635.076 147.259 634.878 148.336 634.484 149.264C634.1 150.192 633.556 150.912 632.852 151.424C632.148 151.936 631.326 152.192 630.388 152.192ZM630.388 150.992C631.07 150.992 631.668 150.784 632.18 150.368C632.692 149.952 633.092 149.376 633.38 148.64C633.668 147.893 633.812 147.024 633.812 146.032C633.812 145.04 633.668 144.176 633.38 143.44C633.092 142.693 632.692 142.117 632.18 141.712C631.668 141.296 631.065 141.088 630.372 141.088C629.689 141.088 629.092 141.296 628.58 141.712C628.068 142.117 627.668 142.693 627.38 143.44C627.092 144.176 626.948 145.04 626.948 146.032C626.948 147.013 627.092 147.877 627.38 148.624C627.668 149.371 628.068 149.952 628.58 150.368C629.102 150.784 629.705 150.992 630.388 150.992ZM640.361 152V140.08H641.481L645.961 146.576H645.337L649.801 140.08H650.921V152H649.641V141.808L650.057 141.968L645.673 148.32H645.609L641.241 141.968L641.641 141.808V152H640.361ZM657.896 152.192C657.16 152.192 656.493 152.027 655.896 151.696C655.309 151.355 654.867 150.875 654.568 150.256L654.76 150.08V152H653.56V139.888H654.76V145.344L654.568 145.008C654.909 144.464 655.363 144.032 655.928 143.712C656.504 143.392 657.16 143.232 657.896 143.232C658.707 143.232 659.427 143.429 660.056 143.824C660.696 144.208 661.197 144.736 661.56 145.408C661.933 146.08 662.12 146.848 662.12 147.712C662.12 148.565 661.933 149.333 661.56 150.016C661.197 150.688 660.696 151.221 660.056 151.616C659.427 152 658.707 152.192 657.896 152.192ZM657.832 150.992C658.408 150.992 658.92 150.848 659.368 150.56C659.827 150.272 660.184 149.883 660.44 149.392C660.707 148.891 660.84 148.331 660.84 147.712C660.84 147.083 660.707 146.523 660.44 146.032C660.184 145.541 659.827 145.152 659.368 144.864C658.92 144.576 658.408 144.432 657.832 144.432C657.256 144.432 656.733 144.576 656.264 144.864C655.805 145.152 655.437 145.547 655.16 146.048C654.893 146.539 654.76 147.093 654.76 147.712C654.76 148.331 654.893 148.891 655.16 149.392C655.437 149.883 655.805 150.272 656.264 150.56C656.733 150.848 657.256 150.992 657.832 150.992ZM663.032 153.92L668.44 140.736H669.832L664.424 153.92H663.032ZM674.067 152.192C673.246 152.192 672.526 151.984 671.907 151.568C671.289 151.152 670.841 150.587 670.563 149.872L671.571 149.392C671.817 149.915 672.158 150.331 672.595 150.64C673.043 150.949 673.534 151.104 674.067 151.104C674.579 151.104 675.011 150.981 675.363 150.736C675.715 150.48 675.891 150.149 675.891 149.744C675.891 149.445 675.806 149.211 675.635 149.04C675.465 148.859 675.267 148.72 675.043 148.624C674.819 148.528 674.622 148.459 674.451 148.416L673.219 148.064C672.43 147.84 671.859 147.525 671.507 147.12C671.155 146.715 670.979 146.245 670.979 145.712C670.979 145.211 671.107 144.773 671.363 144.4C671.619 144.027 671.966 143.739 672.403 143.536C672.841 143.333 673.326 143.232 673.859 143.232C674.585 143.232 675.241 143.424 675.827 143.808C676.425 144.181 676.846 144.704 677.091 145.376L676.067 145.856C675.854 145.376 675.545 145.003 675.139 144.736C674.745 144.459 674.302 144.32 673.811 144.32C673.331 144.32 672.947 144.443 672.659 144.688C672.371 144.933 672.227 145.243 672.227 145.616C672.227 145.904 672.302 146.133 672.451 146.304C672.601 146.475 672.771 146.603 672.963 146.688C673.166 146.773 673.342 146.837 673.491 146.88L674.915 147.296C675.609 147.499 676.147 147.813 676.531 148.24C676.926 148.667 677.123 149.168 677.123 149.744C677.123 150.213 676.99 150.635 676.723 151.008C676.467 151.381 676.11 151.675 675.651 151.888C675.193 152.091 674.665 152.192 674.067 152.192Z" fill="#D5D5D5"/>
<path d="M95.1629 94.288C93.8829 94.288 92.6989 94.056 91.6109 93.592C90.5389 93.128 89.5949 92.48 88.7789 91.648C87.9789 90.816 87.3549 89.84 86.9069 88.72C86.4589 87.6 86.2349 86.376 86.2349 85.048C86.2349 83.72 86.4509 82.496 86.8829 81.376C87.3309 80.24 87.9549 79.264 88.7549 78.448C89.5709 77.616 90.5229 76.976 91.6109 76.528C92.6989 76.064 93.8829 75.832 95.1629 75.832C96.4429 75.832 97.5869 76.048 98.5949 76.48C99.6189 76.912 100.483 77.488 101.187 78.208C101.891 78.912 102.395 79.688 102.699 80.536L99.7709 81.904C99.4349 81.008 98.8669 80.272 98.0669 79.696C97.2669 79.104 96.2989 78.808 95.1629 78.808C94.0429 78.808 93.0509 79.072 92.1869 79.6C91.3389 80.128 90.6749 80.856 90.1949 81.784C89.7309 82.712 89.4989 83.8 89.4989 85.048C89.4989 86.296 89.7309 87.392 90.1949 88.336C90.6749 89.264 91.3389 89.992 92.1869 90.52C93.0509 91.048 94.0429 91.312 95.1629 91.312C96.2989 91.312 97.2669 91.024 98.0669 90.448C98.8669 89.856 99.4349 89.112 99.7709 88.216L102.699 89.584C102.395 90.432 101.891 91.216 101.187 91.936C100.483 92.64 99.6189 93.208 98.5949 93.64C97.5869 94.072 96.4429 94.288 95.1629 94.288ZM104.365 94L110.533 76.12H114.757L120.925 94H117.373L116.101 90.16H109.189L107.893 94H104.365ZM110.125 87.28H115.165L112.189 78.376H113.101L110.125 87.28ZM123.395 94V76.12H126.659V91.12H134.315V94H123.395ZM144.837 94.288C143.557 94.288 142.373 94.056 141.285 93.592C140.213 93.128 139.269 92.48 138.453 91.648C137.653 90.816 137.029 89.84 136.581 88.72C136.133 87.6 135.909 86.376 135.909 85.048C135.909 83.72 136.125 82.496 136.557 81.376C137.005 80.24 137.629 79.264 138.429 78.448C139.245 77.616 140.197 76.976 141.285 76.528C142.373 76.064 143.557 75.832 144.837 75.832C146.117 75.832 147.261 76.048 148.269 76.48C149.293 76.912 150.157 77.488 150.861 78.208C151.565 78.912 152.069 79.688 152.373 80.536L149.445 81.904C149.109 81.008 148.541 80.272 147.741 79.696C146.941 79.104 145.973 78.808 144.837 78.808C143.717 78.808 142.725 79.072 141.861 79.6C141.013 80.128 140.349 80.856 139.869 81.784C139.405 82.712 139.173 83.8 139.173 85.048C139.173 86.296 139.405 87.392 139.869 88.336C140.349 89.264 141.013 89.992 141.861 90.52C142.725 91.048 143.717 91.312 144.837 91.312C145.973 91.312 146.941 91.024 147.741 90.448C148.541 89.856 149.109 89.112 149.445 88.216L152.373 89.584C152.069 90.432 151.565 91.216 150.861 91.936C150.157 92.64 149.293 93.208 148.269 93.64C147.261 94.072 146.117 94.288 144.837 94.288ZM162.391 94.288C161.015 94.288 159.791 94 158.719 93.424C157.663 92.848 156.831 92.056 156.223 91.048C155.615 90.04 155.311 88.896 155.311 87.616V76.12H158.575V87.448C158.575 88.184 158.735 88.848 159.055 89.44C159.391 90.032 159.847 90.496 160.423 90.832C160.999 91.152 161.655 91.312 162.391 91.312C163.143 91.312 163.799 91.152 164.359 90.832C164.935 90.496 165.383 90.032 165.703 89.44C166.039 88.848 166.207 88.184 166.207 87.448V76.12H169.471V87.616C169.471 88.896 169.167 90.04 168.559 91.048C167.951 92.056 167.111 92.848 166.039 93.424C164.983 94 163.767 94.288 162.391 94.288ZM173.21 94V76.12H176.474V91.12H184.13V94H173.21ZM185.257 94L191.425 76.12H195.649L201.817 94H198.265L196.993 90.16H190.081L188.785 94H185.257ZM191.017 87.28H196.057L193.081 78.376H193.993L191.017 87.28ZM206.26 94V79H201.628V76.12H214.108V79H209.548V94H206.26ZM216.579 94V76.12H228.459V79H219.843V83.584H227.979V86.464H219.843V91.12H228.459V94H216.579ZM240.639 94V86.08L234.615 76.12H238.335L242.943 83.896H241.623L246.207 76.12H249.927L243.927 86.056V94H240.639ZM260.484 94.288C259.172 94.288 257.948 94.056 256.812 93.592C255.676 93.128 254.684 92.48 253.836 91.648C252.988 90.816 252.324 89.84 251.844 88.72C251.38 87.584 251.148 86.36 251.148 85.048C251.148 83.72 251.38 82.496 251.844 81.376C252.308 80.256 252.964 79.28 253.812 78.448C254.66 77.616 255.652 76.976 256.788 76.528C257.924 76.064 259.156 75.832 260.484 75.832C261.812 75.832 263.044 76.064 264.18 76.528C265.316 76.992 266.308 77.64 267.156 78.472C268.004 79.288 268.66 80.256 269.124 81.376C269.604 82.496 269.844 83.72 269.844 85.048C269.844 86.36 269.604 87.584 269.124 88.72C268.644 89.84 267.98 90.816 267.132 91.648C266.284 92.48 265.292 93.128 264.156 93.592C263.036 94.056 261.812 94.288 260.484 94.288ZM260.484 91.312C261.364 91.312 262.172 91.16 262.908 90.856C263.644 90.536 264.284 90.096 264.828 89.536C265.388 88.976 265.812 88.312 266.1 87.544C266.404 86.776 266.556 85.944 266.556 85.048C266.556 84.152 266.404 83.328 266.1 82.576C265.812 81.808 265.388 81.144 264.828 80.584C264.284 80.008 263.644 79.568 262.908 79.264C262.172 78.96 261.364 78.808 260.484 78.808C259.62 78.808 258.82 78.96 258.084 79.264C257.348 79.568 256.7 80.008 256.14 80.584C255.596 81.144 255.172 81.808 254.868 82.576C254.564 83.328 254.412 84.152 254.412 85.048C254.412 85.944 254.564 86.776 254.868 87.544C255.172 88.312 255.596 88.976 256.14 89.536C256.7 90.096 257.348 90.536 258.084 90.856C258.82 91.16 259.62 91.312 260.484 91.312ZM280.114 94.288C278.738 94.288 277.514 94 276.442 93.424C275.386 92.848 274.554 92.056 273.946 91.048C273.338 90.04 273.034 88.896 273.034 87.616V76.12H276.298V87.448C276.298 88.184 276.458 88.848 276.778 89.44C277.114 90.032 277.57 90.496 278.146 90.832C278.722 91.152 279.378 91.312 280.114 91.312C280.866 91.312 281.522 91.152 282.082 90.832C282.658 90.496 283.106 90.032 283.426 89.44C283.762 88.848 283.93 88.184 283.93 87.448V76.12H287.194V87.616C287.194 88.896 286.89 90.04 286.282 91.048C285.674 92.056 284.834 92.848 283.762 93.424C282.706 94 281.49 94.288 280.114 94.288ZM290.933 94V76.12H297.581C298.797 76.12 299.869 76.344 300.797 76.792C301.741 77.224 302.477 77.864 303.005 78.712C303.533 79.544 303.797 80.56 303.797 81.76C303.797 82.992 303.501 84.04 302.909 84.904C302.333 85.768 301.549 86.408 300.557 86.824L304.661 94H300.965L296.573 86.152L298.685 87.4H294.197V94H290.933ZM294.197 84.52H297.629C298.221 84.52 298.733 84.408 299.165 84.184C299.597 83.944 299.933 83.616 300.173 83.2C300.413 82.784 300.533 82.304 300.533 81.76C300.533 81.2 300.413 80.72 300.173 80.32C299.933 79.904 299.597 79.584 299.165 79.36C298.733 79.12 298.221 79 297.629 79H294.197V84.52ZM312.025 94V76.12H318.673C319.889 76.12 320.961 76.344 321.889 76.792C322.833 77.224 323.569 77.864 324.097 78.712C324.625 79.544 324.889 80.56 324.889 81.76C324.889 82.992 324.593 84.04 324.001 84.904C323.425 85.768 322.641 86.408 321.649 86.824L325.753 94H322.057L317.665 86.152L319.777 87.4H315.289V94H312.025ZM315.289 84.52H318.721C319.313 84.52 319.825 84.408 320.257 84.184C320.689 83.944 321.025 83.616 321.265 83.2C321.505 82.784 321.625 82.304 321.625 81.76C321.625 81.2 321.505 80.72 321.265 80.32C321.025 79.904 320.689 79.584 320.257 79.36C319.825 79.12 319.313 79 318.721 79H315.289V84.52ZM328.373 94V76.12H340.253V79H331.637V83.584H339.773V86.464H331.637V91.12H340.253V94H328.373ZM346.462 94L341.662 76.12H345.166L348.934 91.36H348.022L351.958 76.12H355.342L359.254 91.36H358.342L362.11 76.12H365.614L360.814 94H357.07L353.11 79.168H354.166L350.206 94H346.462ZM376.414 94.288C375.102 94.288 373.878 94.056 372.742 93.592C371.606 93.128 370.614 92.48 369.766 91.648C368.918 90.816 368.254 89.84 367.774 88.72C367.31 87.584 367.078 86.36 367.078 85.048C367.078 83.72 367.31 82.496 367.774 81.376C368.238 80.256 368.894 79.28 369.742 78.448C370.59 77.616 371.582 76.976 372.718 76.528C373.854 76.064 375.086 75.832 376.414 75.832C377.742 75.832 378.974 76.064 380.11 76.528C381.246 76.992 382.238 77.64 383.086 78.472C383.934 79.288 384.59 80.256 385.054 81.376C385.534 82.496 385.774 83.72 385.774 85.048C385.774 86.36 385.534 87.584 385.054 88.72C384.574 89.84 383.91 90.816 383.062 91.648C382.214 92.48 381.222 93.128 380.086 93.592C378.966 94.056 377.742 94.288 376.414 94.288ZM376.414 91.312C377.294 91.312 378.102 91.16 378.838 90.856C379.574 90.536 380.214 90.096 380.758 89.536C381.318 88.976 381.742 88.312 382.03 87.544C382.334 86.776 382.486 85.944 382.486 85.048C382.486 84.152 382.334 83.328 382.03 82.576C381.742 81.808 381.318 81.144 380.758 80.584C380.214 80.008 379.574 79.568 378.838 79.264C378.102 78.96 377.294 78.808 376.414 78.808C375.55 78.808 374.75 78.96 374.014 79.264C373.278 79.568 372.63 80.008 372.07 80.584C371.526 81.144 371.102 81.808 370.798 82.576C370.494 83.328 370.342 84.152 370.342 85.048C370.342 85.944 370.494 86.776 370.798 87.544C371.102 88.312 371.526 88.976 372.07 89.536C372.63 90.096 373.278 90.536 374.014 90.856C374.75 91.16 375.55 91.312 376.414 91.312ZM389.156 94V76.12H395.804C397.02 76.12 398.092 76.344 399.02 76.792C399.964 77.224 400.7 77.864 401.228 78.712C401.756 79.544 402.02 80.56 402.02 81.76C402.02 82.992 401.724 84.04 401.132 84.904C400.556 85.768 399.772 86.408 398.78 86.824L402.884 94H399.188L394.796 86.152L396.908 87.4H392.42V94H389.156ZM392.42 84.52H395.852C396.444 84.52 396.956 84.408 397.388 84.184C397.82 83.944 398.156 83.616 398.396 83.2C398.636 82.784 398.756 82.304 398.756 81.76C398.756 81.2 398.636 80.72 398.396 80.32C398.156 79.904 397.82 79.584 397.388 79.36C396.956 79.12 396.444 79 395.852 79H392.42V84.52ZM405.504 94V76.12H411.336C413.224 76.12 414.864 76.504 416.256 77.272C417.664 78.024 418.752 79.072 419.52 80.416C420.288 81.744 420.672 83.288 420.672 85.048C420.672 86.792 420.288 88.344 419.52 89.704C418.752 91.048 417.664 92.104 416.256 92.872C414.864 93.624 413.224 94 411.336 94H405.504ZM408.768 91.12H411.408C412.624 91.12 413.672 90.872 414.552 90.376C415.448 89.864 416.144 89.16 416.64 88.264C417.136 87.352 417.384 86.28 417.384 85.048C417.384 83.8 417.136 82.728 416.64 81.832C416.144 80.936 415.448 80.24 414.552 79.744C413.672 79.248 412.624 79 411.408 79H408.768V91.12Z" fill="white"/>
<path d="M741.987 201V188.275C741.987 158.225 741.987 19.3364 741.987 16H495" stroke="url(#paint2_linear_21_1332)" stroke-width="2" stroke-linecap="round" stroke-linejoin="round"/>
<path d="M18.9999 162V174.725C18.9999 204.775 18.9999 343.664 18.9999 347H265.987" stroke="url(#paint3_linear_21_1332)" stroke-width="2" stroke-linecap="round" stroke-linejoin="round"/>
</g>
<defs>
<filter id="filter0_bd_21_1332" x="-44.0001" y="-47" width="848.987" height="457" filterUnits="userSpaceOnUse" color-interpolation-filters="sRGB">
<feFlood flood-opacity="0" result="BackgroundImageFix"/>
<feGaussianBlur in="BackgroundImage" stdDeviation="31"/>
<feComposite in2="SourceAlpha" operator="in" result="effect1_backgroundBlur_21_1332"/>
<feColorMatrix in="SourceAlpha" type="matrix" values="0 0 0 0 0 0 0 0 0 0 0 0 0 0 0 0 0 0 127 0" result="hardAlpha"/>
<feOffset dy="2.9298"/>
<feGaussianBlur stdDeviation="8.7894"/>
<feComposite in2="hardAlpha" operator="out"/>
<feColorMatrix type="matrix" values="0 0 0 0 0 0 0 0 0 0 0 0 0 0 0 0 0 0 0.25 0"/>
<feBlend mode="normal" in2="effect1_backgroundBlur_21_1332" result="effect2_dropShadow_21_1332"/>
<feBlend mode="normal" in="SourceGraphic" in2="effect2_dropShadow_21_1332" result="shape"/>
</filter>
<filter id="filter1_bd_21_1332" x="37" y="190" width="681" height="139" filterUnits="userSpaceOnUse" color-interpolation-filters="sRGB">
<feFlood flood-opacity="0" result="BackgroundImageFix"/>
<feGaussianBlur in="BackgroundImage" stdDeviation="20"/>
<feComposite in2="SourceAlpha" operator="in" result="effect1_backgroundBlur_21_1332"/>
<feColorMatrix in="SourceAlpha" type="matrix" values="0 0 0 0 0 0 0 0 0 0 0 0 0 0 0 0 0 0 127 0" result="hardAlpha"/>
<feOffset dy="4"/>
<feGaussianBlur stdDeviation="12"/>
<feComposite in2="hardAlpha" operator="out"/>
<feColorMatrix type="matrix" values="0 0 0 0 0 0 0 0 0 0 0 0 0 0 0 0 0 0 0.25 0"/>
<feBlend mode="normal" in2="effect1_backgroundBlur_21_1332" result="effect2_dropShadow_21_1332"/>
<feBlend mode="normal" in="SourceGraphic" in2="effect2_dropShadow_21_1332" result="shape"/>
</filter>
<filter id="filter2_d_21_1332" x="84.5" y="154" width="23" height="39" filterUnits="userSpaceOnUse" color-interpolation-filters="sRGB">
<feFlood flood-opacity="0" result="BackgroundImageFix"/>
<feColorMatrix in="SourceAlpha" type="matrix" values="0 0 0 0 0 0 0 0 0 0 0 0 0 0 0 0 0 0 127 0" result="hardAlpha"/>
<feOffset/>
<feGaussianBlur stdDeviation="3.5"/>
<feComposite in2="hardAlpha" operator="out"/>
<feColorMatrix type="matrix" values="0 0 0 0 0.0196078 0 0 0 0 0.941176 0 0 0 0 0.992157 0 0 0 0.4 0"/>
<feBlend mode="normal" in2="BackgroundImageFix" result="effect1_dropShadow_21_1332"/>
<feBlend mode="normal" in="SourceGraphic" in2="effect1_dropShadow_21_1332" result="shape"/>
</filter>
<filter id="filter3_d_21_1332" x="516.5" y="155" width="23" height="39" filterUnits="userSpaceOnUse" color-interpolation-filters="sRGB">
<feFlood flood-opacity="0" result="BackgroundImageFix"/>
<feColorMatrix in="SourceAlpha" type="matrix" values="0 0 0 0 0 0 0 0 0 0 0 0 0 0 0 0 0 0 127 0" result="hardAlpha"/>
<feOffset/>
<feGaussianBlur stdDeviation="3.5"/>
<feComposite in2="hardAlpha" operator="out"/>
<feColorMatrix type="matrix" values="0 0 0 0 0.0196078 0 0 0 0 0.941176 0 0 0 0 0.992157 0 0 0 0.4 0"/>
<feBlend mode="normal" in2="BackgroundImageFix" result="effect1_dropShadow_21_1332"/>
<feBlend mode="normal" in="SourceGraphic" in2="effect1_dropShadow_21_1332" result="shape"/>
</filter>
<linearGradient id="paint0_linear_21_1332" x1="183.41" y1="18.6784" x2="795.26" y2="193.219" gradientUnits="userSpaceOnUse">
<stop stop-color="white" stop-opacity="0.6"/>
<stop offset="1" stop-color="white" stop-opacity="0.25"/>
</linearGradient>
<linearGradient id="paint1_linear_21_1332" x1="41.5" y1="246.5" x2="678" y2="252" gradientUnits="userSpaceOnUse">
<stop stop-color="#05F0FD"/>
<stop offset="0.296875" stop-color="#025CF1" stop-opacity="0"/>
<stop offset="0.526042" stop-color="#025CF1" stop-opacity="0"/>
<stop offset="0.734375" stop-color="#025CF1" stop-opacity="0"/>
<stop offset="1" stop-color="#025CF1"/>
</linearGradient>
<linearGradient id="paint2_linear_21_1332" x1="597.528" y1="228" x2="750.746" y2="138.25" gradientUnits="userSpaceOnUse">
<stop stop-color="#1A318B" stop-opacity="0"/>
<stop offset="0.516021" stop-color="#025CF1"/>
<stop offset="1" stop-color="#05F0FD"/>
</linearGradient>
<linearGradient id="paint3_linear_21_1332" x1="163.459" y1="135" x2="10.2412" y2="224.75" gradientUnits="userSpaceOnUse">
<stop stop-color="#1A318B" stop-opacity="0"/>
<stop offset="0.516021" stop-color="#025CF1"/>
<stop offset="1" stop-color="#05F0FD"/>
</linearGradient>
</defs>
</svg>
