<svg width="36" height="36" viewBox="0 0 36 36" fill="none" xmlns="http://www.w3.org/2000/svg">
<path d="M18 0C8.05501 0 2.92838e-06 8.21229 2.92838e-06 18.4091C-0.00203866 22.2835 1.06341 25.9023 3.27273 29.0455C5.48205 32.1886 8.68739 34.7765 12.2727 36C13.1727 36.1606 13.5 35.6672 13.5 35.1818C13.5 34.7444 13.5 33.0466 13.5 31.5C8.9784 32.3545 7.72364 30.4936 7.36364 29.4545C7.16024 28.923 6.49228 27.4392 5.72728 27C5.09728 26.6549 4.22068 25.7949 5.72728 25.7727C7.14568 25.7487 7.84342 26.8554 8.18182 27.4091C9.80182 30.1996 12.4668 29.529 13.5 29.0455C13.6584 27.8458 14.2089 27.0523 14.7273 26.5909C10.7223 26.1295 6.54546 24.6502 6.54546 17.5909C6.54546 15.5829 7.44251 13.9756 8.59091 12.6818C8.41091 12.2204 7.60091 10.3104 8.59091 7.77273C8.59091 7.77273 10.0566 7.03199 13.5 9.40909C14.9653 8.9921 16.4793 8.99694 18 9C19.53 9 21.06 8.99384 22.5 9.40909C25.9416 7.00985 27.4091 7.77273 27.4091 7.77273C28.3991 10.3104 27.9982 12.2204 27.8182 12.6818C28.9648 13.9737 29.4545 15.5608 29.4545 17.5909C29.4545 24.6742 25.2777 26.1295 21.2727 26.5909C21.9243 27.1667 22.5 28.1325 22.5 29.8636C22.5 32.3312 22.5 34.558 22.5 35.1818C22.5 35.6654 22.8273 36.1846 23.7273 36C27.3003 34.7631 30.5277 32.1863 32.7273 29.0455C34.9268 25.9046 35.999 22.2758 36 18.4091C36 8.21229 27.945 0 18 0Z" fill="white"/>
</svg>
