<svg width="38" height="54" viewBox="0 0 38 54" fill="none" xmlns="http://www.w3.org/2000/svg">
<path d="M38 19.0751V39.8964L28.5 33.4754L19 39.8964L9.5 33.4754L0 39.8964V19.0751C0 14.0658 2.00178 9.26165 5.56497 5.71955C9.12816 2.17744 13.9609 0.1875 19 0.1875C24.0391 0.1875 28.8718 2.17744 32.435 5.71955C35.9982 9.26165 38 14.0658 38 19.0751Z" fill="white"/>
<path d="M16.8093 41.5071L9.49515 46.4517L2.17969 41.5071L9.49515 36.5625L16.8093 41.5071Z" fill="white"/>
<path d="M26.3171 48.0618L19.003 53.0077L11.6875 48.0618L19.003 43.1172L26.3171 48.0618Z" fill="white"/>
<path d="M35.8106 41.5071L28.4952 46.4517L21.1797 41.5071L28.4952 36.5625L35.8106 41.5071Z" fill="white"/>
</svg>
